<svg width="68" height="30" viewBox="0 0 68 30" fill="none" xmlns="http://www.w3.org/2000/svg">
<g clip-path="url(#clip0_69_2927)">
<path d="M7.28331 23.3258C8.15468 22.3322 8.97805 21.4582 9.72494 20.6066C12.4345 17.6683 16.3183 15.0541 21.7106 12.7717C25.6306 11.1315 29.5108 10.2061 33.1118 10.3118C36.7128 10.4175 40.1988 10.6975 43.6659 10.9128C45.4424 11.0254 47.0754 11.2152 48.8424 11.2954C52.0232 11.3836 54.0878 10.7789 56.9858 9.05119C60.4481 6.9824 62.3539 4.70142 62.6266 2.23064C65.0444 1.69834 65.425 2.43075 65.2418 3.22276C65.0296 4.19909 64.5974 5.27498 63.7356 6.30092C62.7492 7.4688 61.371 8.71627 59.783 9.81422C55.7842 12.6027 51.5881 13.8667 46.6593 13.7631C43.7364 13.7049 41.1484 13.3729 38.3594 13.2052C35.8189 13.035 33.2019 12.8873 30.5178 12.7943C28.5025 12.7165 26.3235 13.214 24.0769 14.0477C20.6353 15.3369 17.9288 16.8679 15.7278 18.7079C15.259 19.0914 14.8665 19.4524 14.4836 19.8458C12.8179 21.5291 11.1523 23.2124 9.36211 25.0376C14.1042 23.0862 18.4735 21.2793 22.9192 19.4499C22.9956 19.4275 23.2725 19.5222 23.5398 19.5846C23.2719 19.8037 23.1089 20.0975 22.822 20.2519C18.7959 22.3803 14.7888 24.5734 10.5624 26.5847C7.28267 28.143 5.08531 28.2942 3.73147 27.0733C2.51099 26.0243 1.88327 24.7314 1.3415 23.4485C1.1702 23.1471 2.08898 22.3154 2.8157 21.962C3.24605 21.7305 4.73625 21.716 5.20393 21.8954C6.12033 22.1896 6.52992 22.7377 7.28331 23.3258Z" fill="#001C2A"/>
</g>
<defs>
<clipPath id="clip0_69_2927">
<rect width="67.1801" height="10.5969" fill="white" transform="translate(67.4502 10.1697) rotate(163.677)"/>
</clipPath>
</defs>
</svg>
