<svg width="93" height="51" viewBox="0 0 93 51" fill="none" xmlns="http://www.w3.org/2000/svg">
<g clip-path="url(#clip0_69_2933)">
<path d="M80.6924 36.876C78.5875 35.7325 76.8571 34.8352 75.2276 33.935C74.292 33.4072 73.2471 32.8149 74.566 32.6691C78.1664 34.4462 81.836 36.1266 84.9941 37.9298C86.343 38.6893 86.3221 39.0144 85.3294 39.178C84.9727 39.2423 84.5068 39.2421 84.1032 39.2536C81.7973 39.2789 79.4913 39.3041 77.0997 39.2912C76.3311 39.2997 75.4146 39.2582 74.3462 38.6395C73.3871 38.0854 73.5946 37.7955 74.2305 37.6962C74.9674 37.594 75.837 37.5827 76.6831 37.545C77.2886 37.5277 77.9563 37.5222 78.2964 37.3231C77.9232 37.2526 77.55 37.1821 77.1768 37.1116C73.0091 36.3245 71.1404 35.6205 68.0667 33.6796C65.6482 32.1257 63.8282 30.663 62.8708 29.2973C62.6276 28.9662 62.3845 28.635 62.1648 28.3302C61.0443 26.9557 59.3152 26.2342 56.4716 26.0043C55.0188 25.8835 53.769 25.9327 52.4488 25.9027C48.5352 25.8657 45.3836 24.9413 41.2042 22.5722C38.0697 20.7953 35.5877 19.0539 33.8825 17.3715C33.374 16.8586 32.842 16.3193 32.1704 15.7975C31.0303 14.9239 29.9093 14.5367 28.5587 14.5887C27.0836 14.6173 25.9126 14.813 24.6559 14.9706C23.7559 15.064 23.0507 15.2599 22.065 15.3151C20.0314 15.4137 17.4271 14.9877 14.32 13.7645C11.9993 12.8435 9.67034 11.8551 7.44231 10.8638C5.98553 10.2157 4.88545 9.50323 5.09034 8.86174C5.83809 9.1785 6.43794 9.44539 7.1 9.72402C9.45244 10.7388 11.8049 11.7536 14.2347 12.7391C16.5789 13.6865 18.4133 13.9452 19.7474 13.7583C20.8797 13.5773 21.8406 13.3199 22.9964 13.1652C24.0747 13.0397 25.1296 12.8879 26.4733 12.9442C29.3391 13.0247 32.8499 14.2363 34.9974 15.8926C35.9814 16.6489 36.7635 17.411 37.4599 18.1349C38.9149 19.5946 41.1469 21.1132 43.8447 22.6321C46.1057 23.8929 47.2807 24.2245 49.393 24.2724C51.1404 24.3172 52.7551 24.2711 54.6821 24.4595C55.9097 24.5597 57.5739 24.9179 59.1456 25.3464C61.8686 26.0801 63.8796 27.1182 64.9049 28.2114C65.4216 28.7917 65.8997 29.3867 66.1676 29.92C66.8679 31.1713 68.8041 32.5901 71.0042 34.015C72.0808 34.701 73.2805 35.2348 74.9601 35.552C76.6396 35.8692 78.3978 36.333 80.6924 36.876Z" fill="#001C2A"/>
</g>
<defs>
<clipPath id="clip0_69_2933">
<rect width="90.2754" height="22.7367" fill="white" transform="translate(7.19629) rotate(18.4526)"/>
</clipPath>
</defs>
</svg>
