<svg width="193" height="29" viewBox="0 0 193 29" fill="none" xmlns="http://www.w3.org/2000/svg">
<g clip-path="url(#clip0_52_496)">
<path d="M173.928 15.3187C115.811 32.5805 58.751 33.1862 0 18.9528C4.22669 15.773 7.81938 16.9843 10.5667 17.59C31.7002 21.6783 53.4676 22.1326 75.0238 22.7382C106.09 23.6468 135.465 18.4985 164.207 10.1704C165.475 9.86757 166.532 9.2619 169.068 8.05055C154.486 5.93068 139.903 9.56476 127.223 5.32502C127.435 4.71934 127.435 3.96222 127.646 3.35654C137.156 2.90228 146.877 2.44802 156.388 1.84235C165.898 1.23667 175.196 0.4796 184.706 0.0253415C191.68 -0.277497 194.639 2.1452 192.103 6.68778C188.933 12.5931 184.495 18.0442 180.48 23.6467C180.057 24.2524 179.423 25.0095 178.578 25.3123C176.253 25.918 173.928 26.0695 171.392 26.5237C170.97 25.0095 169.913 23.3439 170.124 21.9811C170.547 20.1641 172.026 18.6499 173.928 15.3187Z" fill="#001C2A"/>
</g>
<defs>
<clipPath id="clip0_52_496">
<rect width="193" height="29" fill="white"/>
</clipPath>
</defs>
</svg>
