<svg width="468" height="138" viewBox="0 0 468 138" fill="none" xmlns="http://www.w3.org/2000/svg">
<g clip-path="url(#clip0_55_1275)">
<path d="M47.001 70.3914C59.1949 72.5046 69.1447 74.0147 78.6102 75.7297C84.0643 76.7722 90.16 77.9519 84.0172 81.2042C63.4707 78.5393 42.7565 76.5173 24.31 72.8824C16.4496 71.3871 15.9861 69.6223 20.516 66.8889C22.1342 65.8776 24.3939 65.0034 26.3315 64.1837C37.4703 59.7167 48.609 55.2497 60.2295 50.824C63.9425 49.335 68.4592 47.8328 74.7146 49.1083C80.3284 50.2467 79.8255 52.1752 76.9139 53.8971C73.5178 55.824 69.3205 57.5179 65.2829 59.3077C62.3764 60.5372 59.1479 61.8213 57.8439 63.5168C59.7763 63.1895 61.7088 62.8623 63.6411 62.535C85.2194 58.8808 95.5044 59.1052 113.781 63.6291C128.208 67.3303 139.574 71.6727 146.589 77.1207C148.343 78.4211 150.098 79.7216 151.692 80.9262C159.513 86.1148 169.152 86.6945 183.341 82.5711C190.596 80.4822 196.572 77.8727 203.026 75.5508C222.07 68.3934 238.958 67.3766 263.341 72.0953C281.628 75.6344 296.689 80.2114 307.879 85.9352C311.236 87.7016 314.753 89.5639 318.916 91.0708C325.962 93.5642 332.071 93.5128 338.53 90.6984C345.634 87.775 350.973 84.5359 356.794 81.3382C360.996 79.1519 364.076 76.7871 368.76 74.642C378.451 70.2973 391.82 67.6646 409.013 68.3168C421.866 68.8435 434.877 69.7123 447.404 70.7861C455.594 71.4882 462.166 73.2016 462.286 76.9907C458.11 76.7149 454.738 76.4258 451.043 76.1913C437.873 75.2266 424.702 74.2619 411.207 73.598C398.193 72.9754 388.848 75.0496 382.703 78.5481C377.526 81.6367 373.313 84.8079 367.977 87.8007C362.965 90.4928 358.113 93.2807 351.499 95.5067C337.462 100.465 318.332 100.632 305.041 95.8783C298.956 93.7137 293.84 91.1393 289.205 88.6062C279.614 83.5945 266.153 79.7297 250.432 76.7392C237.277 74.2972 231.004 74.7452 220.677 78.4603C212.125 81.5061 204.374 84.7848 194.702 87.406C188.575 89.1809 179.882 90.4073 171.516 91.0867C157.036 92.31 145.481 90.5802 138.611 86.7053C135.097 84.5968 131.745 82.338 129.52 80.0114C123.95 74.6872 112.097 70.796 98.9527 67.3691C92.5403 65.7515 85.7954 65.1734 77.0996 66.646C68.4039 68.1186 59.0719 68.9617 47.001 70.3914Z" fill="#001C2A"/>
</g>
<defs>
<clipPath id="clip0_55_1275">
<rect width="465" height="128" fill="white" transform="translate(467.462 127.974) rotate(178.856)"/>
</clipPath>
</defs>
</svg>
