<svg width="72" height="36" viewBox="0 0 72 36" fill="none" xmlns="http://www.w3.org/2000/svg">
<g clip-path="url(#clip0_69_2925)">
<path d="M62.9437 29.1412C40.5426 25.3179 20.3118 17.2457 1.08434 5.00829C2.9211 4.77782 4.06011 5.61625 4.9657 6.17267C11.9934 10.302 19.6371 13.5625 27.1898 16.8325C38.0708 21.5546 49.0076 24.4323 60.0635 26.3782C60.5443 26.4811 60.983 26.4735 62.0099 26.5193C57.0852 23.8553 51.5398 22.7118 47.516 19.7621C47.656 19.6325 47.7377 19.4324 47.8777 19.3029C51.2876 20.5549 54.7722 21.8374 58.1985 23.0494C61.6247 24.2614 64.9926 25.4029 68.4025 26.6549C70.8998 27.581 71.6841 28.6481 70.2978 29.4826C68.5405 30.5857 66.384 31.3859 64.3606 32.2871C64.1459 32.3861 63.8401 32.4947 63.5087 32.4528C62.6218 32.2775 61.7839 31.9821 60.8387 31.7363C60.8526 31.2752 60.6589 30.6826 60.8806 30.3529C61.226 29.9338 61.9121 29.7471 62.9437 29.1412Z" fill="#001C2A"/>
</g>
<defs>
<clipPath id="clip0_69_2925">
<rect width="73.6721" height="8.27727" fill="white" transform="translate(3.12891) rotate(22.2071)"/>
</clipPath>
</defs>
</svg>
