<svg width="205" height="87" viewBox="0 0 205 87" fill="none" xmlns="http://www.w3.org/2000/svg">
<g clip-path="url(#clip0_52_494)">
<path d="M0.000137437 37.4024C12.2128 25.5644 63.1503 18.6076 96.9325 23.6466C133.451 29.0265 153.185 37.3237 191.109 63.5222C191.111 61.1708 190.862 59.2259 191.003 57.4978C191.06 55.5132 191.146 53.4181 191.762 51.5752C191.902 51.0227 193.411 50.3468 194.276 50.4487C195.142 50.5506 196.341 51.678 196.48 52.3013C197.648 58.2421 198.536 64.1121 199.536 70.128C199.786 72.0728 198.612 73.1863 196.099 73.1371C186.578 72.6041 177.029 72.1817 167.396 71.5029C165.218 71.3034 162.818 70.2243 160.026 69.5164C163.464 65.3315 168.349 67.1583 172.286 66.8632C176.391 66.493 180.635 66.7461 185.857 66.659C175.841 57.5335 165.096 50.6929 153.29 45.1118C110.083 24.512 66.3031 21.4063 22.5389 31.711C16.8414 33.0885 11.4506 35.0142 5.86472 36.5376C4.1892 36.7007 2.65325 36.8992 0.000137437 37.4024Z" fill="#001C2A"/>
</g>
<defs>
<clipPath id="clip0_52_494">
<rect width="201.704" height="38.5862" fill="white" transform="translate(9.48486) rotate(14.2297)"/>
</clipPath>
</defs>
</svg>
