<svg width="501" height="403" viewBox="0 0 501 403" fill="none" xmlns="http://www.w3.org/2000/svg">
<g clip-path="url(#clip0_52_1059)">
<path d="M489.954 519.532C493.417 517.92 494.888 517.812 496.109 516.982C564.37 448.67 600.377 372.993 595.045 289.879C593.762 268.881 585.946 249.352 572.872 232.06C545.27 194.747 491.689 181.059 437.422 197.149C409.104 205.404 383.066 217.315 363.117 238.029C364.971 249.117 367.273 260.048 367.978 270.728C369.026 288.166 363.236 304.752 347.61 319.102C336.29 329.928 322.831 334.621 313.64 331.351C301.577 327.06 298.055 316.959 300.994 306.627C305.044 292.267 311.14 278.002 317.936 264.303C322.401 255.463 329.487 246.923 335.675 238.695C313.834 200.588 259.792 200.008 208.28 236.988C208.498 243.386 208.842 250.144 208.612 256.699C207.061 281.113 196.122 303.136 171.846 320.097C162.534 326.581 151.696 331.575 140.082 327.127C131.339 323.701 127.817 313.599 131.473 300.995C137.602 281.054 151.199 263.769 166.645 247.459C172.243 241.865 177.84 236.272 183.563 231.039C152.577 171.033 66.5432 150.857 6.25978 200.201C5.07309 195.354 3.2407 191.542 4.28045 188.752C5.64304 185.444 10.0748 182.281 13.8609 180.151C49.9817 161.082 86.6814 152.332 123.642 164.532C151.411 173.463 173.26 188.503 191.181 208.151C193.659 210.929 196.137 213.707 199.064 216.328C199.189 216.689 200.212 216.737 202.384 217.193C206.296 215.425 211.231 213.704 215.915 211.262C273.389 182.724 309.322 184.762 352.861 220.159C357.742 216.839 363.519 213.206 368.722 209.369C399.996 187.943 434.289 175.177 472.553 172.355C534.812 167.641 585.311 194.138 606.709 242.517C618.386 268.792 621.611 296.801 618.304 326.279C609.954 397.573 578.232 462.45 516.498 519.179C513.538 522.234 510.004 525.085 507.044 528.14C506.721 528.657 506.524 529.535 505.933 532.169C522.192 529.737 536.171 523.649 550.276 517.921C564.058 512.711 578.036 506.623 593.038 500.583C594.963 510.433 589.94 516.23 583.068 521.054C574.85 526.347 566.884 532.362 558.037 535.852C534.063 545.02 509.514 553.985 484.462 561.506C464.794 567.15 456.517 560.729 460.638 545.13C469.723 512.02 479.257 478.753 488.79 445.486C490.421 440.061 493.201 435.046 496.375 428.274C507.666 433.239 506.09 440.263 504.836 446.769C499.068 470.631 494.645 494.023 489.954 519.532ZM149.767 311.611C179.59 297.57 193.346 274.97 186.893 252.133C170.03 270.152 153.686 286.776 149.767 311.611ZM320.902 314.657C345.61 300.377 353.14 281.566 342.774 260.498C329.752 277.987 318.721 293.972 320.902 314.657Z" fill="#0E8AD6"/>
</g>
<defs>
<clipPath id="clip0_52_1059">
<rect width="553.539" height="518.341" fill="white" transform="translate(0 182.248) rotate(-19.2227)"/>
</clipPath>
</defs>
</svg>
