<svg width="167" height="176" viewBox="0 0 167 176" fill="none" xmlns="http://www.w3.org/2000/svg">
<g clip-path="url(#clip0_17_357)">
<path d="M46.3609 143.424C46.8538 143.798 46.913 144.05 47.1549 144.139C66.3952 145.662 86.88 140.118 108.437 125.839C113.885 122.243 118.813 117.69 123.047 112.535C132.196 101.524 134.642 89.5528 129.31 82.2238C126.564 78.3768 122.913 75.5314 117.095 75.2064C114.243 77.3199 111.441 79.4902 108.672 81.3286C104.147 84.3117 99.7018 85.9103 95.6329 85.3556C92.5732 85.0226 91.0676 83.3174 91.7274 81.1165C92.5934 78.2278 95.1532 75.9676 97.9083 74.8501C101.737 73.2902 105.584 72.1191 109.298 71.1664C111.696 70.5661 114.071 70.4921 116.346 70.3044C125.824 60.217 124.842 50.2607 114.121 46.7789C112.458 47.843 110.703 48.9878 108.989 49.9951C102.592 53.6207 96.6209 55.1499 91.6899 53.4346C89.8043 52.773 88.2754 51.5941 89.1915 48.7622C89.9015 46.6182 92.4613 44.3581 95.8241 43.0074C101.151 40.9336 105.943 40.6482 110.519 40.8561C112.095 40.9822 113.67 41.1084 115.154 41.3152C130.149 26.0528 133.607 7.11983 119.479 4.0167C120.717 3.0242 121.673 2.07946 122.422 1.82252C123.313 1.54169 124.231 1.84406 124.865 2.19419C130.594 5.73412 133.644 11.0317 131.238 19.7308C129.491 26.229 126.028 32.6249 121.281 39.0414C120.609 39.9384 119.937 40.8353 119.315 41.7892C119.223 41.8699 119.232 42.0643 119.159 42.5338C119.702 42.9646 120.254 43.5899 120.989 44.0537C129.633 49.9752 129.855 56.8598 121.539 70.4737C122.507 70.8329 123.575 71.3058 124.684 71.6411C130.926 73.9191 134.973 78.1344 136.51 84.6666C139.044 95.2755 133.194 108.735 121.03 120.385C114.424 126.723 107.189 131.796 99.4348 135.912C80.6723 145.802 63.0932 150.398 47.0095 148.213C46.1509 148.161 45.3335 147.973 44.4749 147.922C44.3333 147.946 44.1003 148.05 43.4012 148.364C44.3761 150.942 46.2563 152.519 48.0451 154.176C49.6923 155.858 51.5725 157.434 53.4616 159.206C50.9341 161.134 49.3173 161.145 47.9156 160.663C46.3634 160.011 44.6283 159.52 43.5331 158.464C40.6403 155.556 37.7887 152.51 35.3028 149.142C33.4191 146.455 34.9196 143.917 39.0728 142.172C47.8956 138.529 56.7686 134.943 65.6416 131.357C67.09 130.787 68.4559 130.491 70.2878 129.986C69.23 132.842 67.3658 133.679 65.6432 134.492C59.3012 137.259 53.1098 140.197 46.3609 143.424ZM93.4398 48.0459C97.7253 51.2414 103.906 50.134 109.725 45.3C104.673 45.1069 99.9968 44.7853 93.4398 48.0459ZM96.232 79.7692C100.473 81.9927 105.535 80.3555 110.811 75.0907C105.978 75.5137 101.579 76.0595 96.232 79.7692Z" fill="#001C2A"/>
</g>
<defs>
<clipPath id="clip0_17_357">
<rect width="88.3396" height="165.453" fill="white" transform="translate(124.028) rotate(48.5581)"/>
</clipPath>
</defs>
</svg>
