<svg width="59" height="51" viewBox="0 0 59 51" fill="none" xmlns="http://www.w3.org/2000/svg">
<g clip-path="url(#clip0_32_46)">
<path d="M49.3361 41.8414C29.7254 34.6754 14.4961 22.6633 2.47441 5.77122C4.37458 5.7064 5.02575 6.84318 5.60267 7.61485C10.1811 13.377 15.822 18.1681 21.3698 22.9601C29.3564 29.8771 38.3878 34.5883 48.0348 38.1958C48.4445 38.3747 48.8729 38.4161 49.8415 38.5893C46.5097 34.8269 41.7609 32.8166 39.4539 28.8152C39.6589 28.676 39.8454 28.4454 40.0504 28.3062C42.6756 30.2006 45.3567 32.1402 48.0192 33.9885C50.6818 35.8368 53.3257 37.5939 55.951 39.4883C57.8687 40.8868 58.054 42.2569 56.265 43.0981C53.9729 44.2187 51.4575 44.93 49.0165 45.7777C48.7556 45.8718 48.4016 45.9668 48.1036 45.8784C47.3401 45.5659 46.6884 45.1151 45.9063 44.7114C46.1675 44.1599 46.2985 43.4269 46.6899 43.0571C47.2491 42.5941 48.013 42.4493 49.3361 41.8414Z" fill="#001C2A"/>
</g>
<defs>
<clipPath id="clip0_32_46">
<rect width="65.6015" height="11.3573" fill="white" transform="translate(7.14204) rotate(38.9651)"/>
</clipPath>
</defs>
</svg>
