<svg width="64" height="43" viewBox="0 0 64 43" fill="none" xmlns="http://www.w3.org/2000/svg">
<g clip-path="url(#clip0_32_48)">
<path d="M8.77283 35.4843C9.28921 34.1648 9.79979 32.9971 10.2424 31.8662C11.9009 27.9478 14.8366 24.281 19.3836 20.8338C22.6955 18.3511 26.218 16.7456 29.8242 16.4328C33.4303 16.1199 36.9834 16.0339 40.4951 15.8712C42.2952 15.7907 43.9802 15.8219 45.7597 15.703C48.9431 15.4203 50.7781 14.429 53.0466 11.9649C55.7552 9.01535 56.8468 5.99782 56.2535 2.94904C58.4639 2.00275 59.0971 2.84987 59.1924 3.83892C59.3233 5.05645 59.2711 6.42249 58.7754 7.7803C58.206 9.32661 57.276 11.0181 56.0858 12.5529C53.097 16.4466 49.3798 18.5041 44.4583 18.9825C41.5409 19.2701 38.8597 19.1824 36.0368 19.32C33.4592 19.424 30.8137 19.5649 28.1209 19.7807C26.0961 19.9331 24.1103 20.8076 22.175 22.1007C19.2144 24.0963 17.0669 26.2969 15.5286 28.8125C15.1979 29.338 14.9352 29.8267 14.6931 30.3538C13.6306 32.6125 12.568 34.8711 11.4316 37.3182C15.4497 34.355 19.1488 31.6136 22.9158 28.8355C22.9837 28.7988 23.2912 28.8805 23.578 28.9237C23.389 29.224 23.3301 29.6027 23.0997 29.8262C19.8532 32.9177 16.6481 36.0859 13.1621 39.0591C10.456 41.3632 8.33094 41.8174 6.56229 40.4936C4.98593 39.3631 3.91183 37.8623 2.92641 36.3631C2.65126 36.0163 3.27123 34.8886 3.86798 34.3681C4.2136 34.0327 5.68556 33.8322 6.21185 33.9938C7.22299 34.2404 7.82054 34.859 8.77283 35.4843Z" fill="#001C2A"/>
</g>
<defs>
<clipPath id="clip0_32_48">
<rect width="65.1286" height="13.6907" fill="white" transform="translate(63.8095 12.0459) rotate(151.623)"/>
</clipPath>
</defs>
</svg>
