<svg width="257" height="111" viewBox="0 0 257 111" fill="none" xmlns="http://www.w3.org/2000/svg">
<g clip-path="url(#clip0_52_904)">
<path d="M28.2943 82.8165C31.5197 78.1336 34.5743 74.0561 37.3389 70.0423C47.3842 56.2912 61.95 45.1451 82.3146 36.8914C97.1204 30.9929 111.849 28.8973 125.619 32.1231C139.389 35.3489 152.738 39.4243 166.007 43.1385C172.807 45.0541 179.066 47.2774 185.826 49.0124C197.988 51.8337 205.814 50.1169 216.706 42.9949C229.718 34.4611 236.761 23.6404 237.545 10.5962C246.727 9.52814 248.258 13.7355 247.641 17.8461C246.932 22.9233 245.394 28.3719 242.208 33.2354C238.561 38.7678 233.426 44.4376 227.473 49.1509C212.486 61.1467 196.586 64.8244 177.743 60.6293C166.569 58.1591 156.646 54.4679 145.972 51.5093C136.247 48.7211 126.233 45.9965 115.968 43.5161C108.259 41.6107 99.9857 42.6686 91.4892 45.4792C78.4744 49.8489 68.2933 56.0578 60.0763 64.2966C58.3249 66.006 56.8634 67.6517 55.4414 69.478C49.2533 77.2718 43.0651 85.0655 36.4161 93.5283C54.3308 86.5692 70.8359 80.1086 87.6308 73.5845C87.9207 73.5209 88.9883 74.2332 90.0162 74.7648C89.0154 75.7416 88.4233 77.1966 87.3433 77.8121C72.1831 86.2492 57.1021 95.0474 41.1642 102.709C28.7958 108.64 20.4159 107.829 15.1153 100.284C10.3424 93.759 7.8087 86.3644 5.60451 79.0868C4.91846 77.3443 8.34197 73.5645 11.0817 72.2062C12.7018 71.2829 18.394 72.3056 20.1997 73.6132C23.7319 75.867 25.3542 79.1077 28.2943 82.8165Z" fill="#001C2A"/>
</g>
<defs>
<clipPath id="clip0_52_904">
<rect width="250.174" height="58.067" fill="white" transform="translate(256.806 56.7183) rotate(167.626)"/>
</clipPath>
</defs>
</svg>
