<svg width="91" height="85" viewBox="0 0 91 85" fill="none" xmlns="http://www.w3.org/2000/svg">
<g clip-path="url(#clip0_32_53)">
<path d="M70.4383 64.5189C69.2325 62.5428 68.2049 60.9811 67.2841 59.4295C66.7646 58.5226 66.1869 57.5056 67.6744 57.4788C69.8888 60.5963 72.2567 63.5819 73.9915 66.675C74.7417 67.9803 74.4441 68.4544 73.279 68.5534C72.8556 68.5971 72.3741 68.5306 71.947 68.4903C69.5414 68.2001 67.1358 67.9099 64.674 67.5516C63.8722 67.4549 62.9597 67.264 62.3802 66.205C61.8588 65.256 62.3194 64.8602 63.0612 64.8048C63.9098 64.7595 64.8184 64.8663 65.7252 64.9311C66.3659 64.9917 67.061 65.0783 67.5816 64.8346C67.2556 64.6783 66.9295 64.5219 66.6034 64.3656C62.9624 62.6196 61.6277 61.3218 60.097 58.0387C58.9151 55.4164 58.2748 53.0125 58.4439 50.8736C58.4736 50.3533 58.5032 49.833 58.5347 49.3548C58.5427 47.1797 57.3673 45.876 54.6224 45.1353C53.2227 44.7519 51.8888 44.6467 50.5492 44.4155C46.5343 43.8058 44.0603 42.0027 41.7497 37.9346C40.0168 34.8835 38.9284 31.9771 38.5933 29.2674C38.5028 28.4429 38.4105 27.5763 38.1589 26.7156C37.7215 25.2725 36.8911 24.5454 35.4505 24.4302C33.9011 24.2628 32.5242 24.3837 31.0912 24.4365C30.0814 24.4456 29.1861 24.633 28.1201 24.5741C25.9338 24.4301 23.6027 23.4356 21.4282 21.2006C19.8105 19.5204 18.2413 17.7401 16.779 15.9699C15.8228 14.8125 15.2901 13.6114 16.0463 12.6996C16.5506 13.2703 16.9443 13.7469 17.3924 14.2495C18.9634 16.0718 20.5344 17.8941 22.2103 19.6845C23.83 21.4068 25.5071 22.0465 27.045 21.9618C28.3694 21.8568 29.5813 21.6157 30.9076 21.5528C32.129 21.5218 33.3485 21.4488 34.69 21.7221C37.5847 22.2468 40.1864 24.5222 41.0011 27.2563C41.3766 28.5053 41.5385 29.7341 41.6441 30.8948C41.9097 33.2423 42.9286 35.7865 44.4289 38.3971C45.6967 40.5673 46.63 41.2205 48.7734 41.5905C50.542 41.9041 52.2506 42.0657 54.0831 42.6155C55.2673 42.9367 56.684 43.6983 57.9453 44.5498C60.1381 46.0124 61.3363 47.8204 61.4686 49.5694C61.5104 50.4939 61.4997 51.4344 61.3241 52.2547C60.9863 54.1895 61.7839 56.5454 62.8495 58.9475C63.3804 60.1066 64.1678 61.0598 65.6351 61.7634C67.1024 62.467 68.5268 63.3967 70.4383 64.5189Z" fill="#001C2A"/>
</g>
<defs>
<clipPath id="clip0_32_53">
<rect width="84" height="40" fill="white" transform="translate(25.7447) rotate(40.0621)"/>
</clipPath>
</defs>
</svg>
