<svg width="71" height="72" viewBox="0 0 71 72" fill="none" xmlns="http://www.w3.org/2000/svg">
<g clip-path="url(#clip0_52_888)">
<path fill-rule="evenodd" clip-rule="evenodd" d="M46.1093 24.4504C46.2419 22.6384 46.3155 20.5908 46.2861 18.5873C46.2798 17.2626 46.1962 15.9395 46.0356 14.6246C46.0159 13.453 45.8426 12.2891 45.52 11.1627C45.2541 10.4137 44.7036 9.79971 43.988 9.45383C43.135 9.08167 42.2216 8.86706 41.2921 8.82038C40.0938 8.77941 38.8941 8.79908 37.6977 8.87931C36.1362 8.93823 34.059 8.48156 32.1881 8.49629C31.2161 8.48382 30.2508 8.65888 29.345 9.01189C28.7641 9.3128 28.2906 9.78626 27.9897 10.3672C27.6002 11.2241 27.3134 12.124 27.1353 13.0483C26.7642 14.5277 26.5178 16.0356 26.3987 17.5561C26.2908 19.7758 26.3301 22.0002 26.5166 24.2147C26.8259 29.1497 28.8588 27.5587 21.9351 27.1757L14.6283 27.0578C13.4998 26.9808 12.3671 26.9906 11.2401 27.0873C10.3044 27.2353 9.44704 27.6978 8.80942 28.3984C8.37107 28.8902 8.04886 29.4742 7.86661 30.1072C7.63618 30.8918 7.4493 31.6885 7.30682 32.4937C7.15648 33.1086 7.05306 33.7341 6.99746 34.3646L6.95327 36.206C7.0367 37.8245 7.35427 39.4222 7.89607 40.9495C8.24422 42.0422 8.83898 43.0402 9.63438 43.8664C9.97457 44.154 10.3787 44.356 10.8129 44.4556C11.5841 44.5615 12.362 44.6107 13.1404 44.6029L24.3805 44.7355C24.5679 44.7352 24.7476 44.6606 24.8801 44.528C25.0127 44.3955 25.0873 44.2158 25.0876 44.0284C25.0806 43.8392 25.0023 43.6596 24.8684 43.5257C24.7346 43.3918 24.555 43.3135 24.3658 43.3066L13.2288 43.0119C12.7132 42.9677 12.0503 43.0119 11.4463 42.9088C11.1895 42.8928 10.9433 42.8005 10.7392 42.6437C10.1686 41.9818 9.75109 41.2021 9.51653 40.3603C9.04316 39.0021 8.76539 37.5835 8.69157 36.1471C8.63231 33.8908 9.1441 31.6562 10.1794 29.6506C10.5345 29.279 11.0091 29.0443 11.52 28.9877C12.5324 28.9468 13.5464 28.9763 14.5547 29.076L21.611 29.3559C22.215 29.4001 24.7046 29.9157 26.2072 29.9452C26.8715 30.0135 27.5388 29.8467 28.0928 29.4738C28.4983 29.0685 28.7574 28.5399 28.8294 27.9712C28.8868 26.6828 28.8376 25.3918 28.6821 24.1116C28.577 22.3456 28.5672 20.5753 28.6526 18.8083C28.7481 17.0871 29.0146 15.3797 29.4481 13.7112C30.2289 10.6029 31.9377 11.2216 32.0556 11.1037C33.9117 11.1037 36.0183 11.5604 37.5651 11.4868C38.5374 11.4573 39.7306 11.3836 40.8649 11.4573C41.4677 11.4889 42.0606 11.6235 42.618 11.855C42.8979 11.9876 42.8979 12.3706 42.9568 12.7242C43.0894 13.4755 43.1041 14.2857 43.163 14.875C43.2946 16.0983 43.3635 17.3275 43.3693 18.5578C43.3987 20.4729 43.3251 22.4616 43.163 24.2441C43.1041 24.9807 42.8389 26.1003 42.7505 27.0726C42.6816 27.6375 42.7065 28.2099 42.8242 28.7667C42.8997 29.0654 43.0546 29.338 43.2724 29.5559C43.4903 29.7737 43.763 29.9286 44.0616 30.0041C44.7304 30.0974 45.4077 30.1123 46.0798 30.0483C47.7739 30.1514 49.527 30.1072 51.2653 30.1956C51.9606 30.2222 52.654 30.2862 53.3424 30.3871C54.8616 30.5367 56.3649 30.8176 57.8355 31.2268C58.6513 31.4394 59.3976 31.8608 60.001 32.4495C60.1925 32.641 60.0157 32.9946 59.9715 33.3334C59.9273 33.6722 59.7948 34.2762 59.7358 34.6298C59.5199 36.4094 59.4018 38.1995 59.3823 39.992C59.3336 40.6881 59.2501 41.3814 59.1318 42.0691C58.8667 43.4539 57.5409 44.0137 56.0088 44.3967C53.3458 44.8327 50.6486 45.025 47.9507 44.9712C46.883 44.8757 45.8111 44.8363 44.7393 44.8534C43.9942 44.9426 43.3129 45.3176 42.8389 45.8993C42.4816 46.4213 42.2128 46.9986 42.0434 47.6081C41.7524 48.7858 41.5407 49.9818 41.41 51.1879C41.1743 52.6021 40.8944 54.0899 40.5408 55.5631C40.1873 57.0362 40.0989 58.421 39.6128 59.8794L38.7878 63.0024C38.3138 63.0598 37.8355 63.0746 37.3589 63.0466C36.0772 62.9435 34.5894 62.6636 34.0296 62.6636C32.6506 62.6503 31.2754 62.5172 29.9195 62.2659C29.1789 62.138 28.4866 61.8123 27.916 61.3231C27.6489 60.9886 27.4669 60.5943 27.3857 60.174C27.2666 59.3441 27.1978 58.5078 27.1795 57.6697C26.9745 55.8996 26.9351 54.1143 27.0616 52.3369C27.1691 50.543 27.4154 48.7601 27.7982 47.0041C27.8363 46.8954 27.8508 46.7797 27.8408 46.6649C27.8308 46.55 27.7965 46.4387 27.7401 46.3381C27.6837 46.2376 27.6066 46.1502 27.5138 46.0817C27.4211 46.0133 27.3148 45.9653 27.2021 45.9411C27.0894 45.9169 26.9729 45.9169 26.8602 45.9412C26.7475 45.9655 26.6413 46.0135 26.5486 46.082C26.4559 46.1505 26.3788 46.2379 26.3225 46.3385C26.2662 46.4391 26.2319 46.5505 26.2219 46.6653C25.7745 48.4753 25.4691 50.3174 25.3086 52.1749C25.1549 54.0433 25.1697 55.9218 25.3528 57.7875C25.3751 58.6994 25.4488 59.6093 25.5737 60.5128C25.7119 61.2502 26.0365 61.9399 26.5165 62.5163C27.3255 63.3344 28.3627 63.889 29.4923 64.1073C30.9437 64.3961 32.4175 64.5588 33.897 64.5934C35.3735 64.852 36.864 65.0242 38.3606 65.109C38.9621 65.1269 39.5542 64.957 40.0547 64.6229C40.3502 64.319 40.5807 63.9581 40.7323 63.5622C41.1006 62.6342 41.2921 61.1757 41.572 60.4834C42.0434 59.0692 42.4706 57.5813 42.8389 56.064C43.2072 54.5466 43.546 52.9998 43.7965 51.5414C43.9291 50.7901 44.0616 49.6853 44.3268 48.6835C44.4165 48.1815 44.6124 47.7043 44.9013 47.284C45.0781 47.1073 45.3433 47.1073 45.6379 47.1073C46.566 47.0925 47.6414 47.343 48.3485 47.343C51.7074 47.511 55.0729 47.1834 58.3364 46.3707C59.2116 46.1128 60.0021 45.6259 60.6262 44.9604C61.2503 44.2948 61.6854 43.4747 61.8866 42.5847C62.032 41.8002 62.1352 41.0085 62.196 40.213C62.2405 38.5033 62.3733 36.7971 62.5937 35.1012C62.8005 34.2422 62.9092 33.3625 62.9178 32.479C62.8924 31.8472 62.6594 31.2414 62.2549 30.7554C61.3497 29.8056 60.2044 29.1184 58.9403 28.7667C57.3335 28.2924 55.6865 27.9669 54.0201 27.7944C53.2487 27.6819 52.4716 27.613 51.6925 27.5882C49.9689 27.4851 48.2306 27.544 46.5512 27.4261L45.7263 27.4556C45.7852 26.3655 46.1093 25.2459 46.1093 24.4504Z" fill="#0E8AD6"/>
</g>
<defs>
<clipPath id="clip0_52_888">
<rect width="50" height="50" fill="white" transform="translate(0 36) rotate(-45)"/>
</clipPath>
</defs>
</svg>
