<svg width="261" height="131" viewBox="0 0 261 131" fill="none" xmlns="http://www.w3.org/2000/svg">
<g clip-path="url(#clip0_52_900)">
<path d="M1.23934e-05 68.8215C17.3171 45.7321 83.5241 25.9527 126.063 30.2487C172.058 34.7717 196.148 46.9395 240.987 88.8206C241.324 84.5782 241.28 81.105 241.706 77.9672C242.061 74.3788 242.468 70.5871 243.519 67.1749C243.776 66.1583 245.804 64.725 246.897 64.786C247.991 64.8469 249.367 66.7106 249.457 67.8152C250.109 78.367 250.413 88.8306 250.84 99.5416C250.883 103.015 249.222 105.19 246.012 105.458C233.896 105.848 221.729 106.441 209.492 106.583C206.732 106.533 203.812 104.927 200.338 104.046C205.334 96.008 211.329 98.6103 216.412 97.5191C221.721 96.2687 227.119 96.1229 233.817 95.2249C222.287 80.1836 209.501 69.3677 195.177 60.9746C142.779 29.9435 87.1638 30.5542 29.6661 55.3553C22.1757 58.649 15 62.8881 7.6317 66.4291C5.46323 66.9612 3.46845 67.5372 1.23934e-05 68.8215Z" fill="#001C2A"/>
</g>
<defs>
<clipPath id="clip0_52_900">
<rect width="251" height="71" fill="white" transform="translate(17.4525) rotate(14.2297)"/>
</clipPath>
</defs>
</svg>
