<svg width="205" height="87" fill="none" xmlns="http://www.w3.org/2000/svg"><g clip-path="url(#clip0_52_494)"><path d="M0 37.402c12.213-11.838 63.15-18.794 96.933-13.755 36.518 5.38 56.252 13.677 94.176 39.875.002-2.351-.247-4.296-.106-6.024.057-1.985.143-4.08.759-5.923.14-.552 1.649-1.228 2.514-1.126.866.102 2.065 1.229 2.204 1.852 1.168 5.941 2.056 11.811 3.056 17.827.25 1.945-.924 3.058-3.437 3.01-9.521-.534-19.07-.956-28.703-1.635-2.178-.2-4.578-1.279-7.37-1.987 3.438-4.184 8.323-2.358 12.26-2.653 4.105-.37 8.349-.117 13.571-.204-10.016-9.126-20.761-15.966-32.567-21.547-43.207-20.6-86.987-23.706-130.751-13.401-5.698 1.378-11.088 3.303-16.674 4.827-1.676.163-3.212.361-5.865.864z" fill="#001C2A"/></g><defs><clipPath id="clip0_52_494"><path fill="#fff" transform="rotate(14.23 4.742 37.994)" d="M0 0h201.704v38.586H0z"/></clipPath></defs></svg>