<svg width="72" height="36" fill="none" xmlns="http://www.w3.org/2000/svg"><g clip-path="url(#clip0_69_2925)"><path d="M62.944 29.141C40.543 25.318 20.312 17.246 1.084 5.008c1.837-.23 2.976.608 3.882 1.165 7.027 4.129 14.671 7.39 22.224 10.66 10.88 4.722 21.818 7.6 32.873 9.545.481.103.92.096 1.947.141-4.925-2.664-10.47-3.807-14.494-6.757.14-.13.222-.33.362-.46 3.41 1.253 6.894 2.535 10.32 3.747 3.427 1.212 6.795 2.354 10.205 3.606 2.497.926 3.281 1.993 1.895 2.828-1.758 1.103-3.914 1.903-5.937 2.804-.215.1-.52.208-.852.166-.887-.175-1.725-.47-2.67-.717.014-.46-.18-1.053.042-1.383.345-.42 1.031-.606 2.063-1.212z" fill="#001C2A"/></g><defs><clipPath id="clip0_69_2925"><path fill="#fff" transform="rotate(22.207 1.564 7.971)" d="M0 0h73.672v8.277H0z"/></clipPath></defs></svg>