<svg width="193" height="29" fill="none" xmlns="http://www.w3.org/2000/svg"><g clip-path="url(#clip0_52_496)"><path d="M173.928 15.319C115.811 32.58 58.751 33.186 0 18.953c4.227-3.18 7.82-1.969 10.567-1.363 21.133 4.088 42.9 4.543 64.457 5.148 31.066.909 60.441-4.24 89.183-12.568 1.268-.302 2.325-.908 4.861-2.12-14.582-2.12-29.165 1.515-41.845-2.725.212-.606.212-1.363.423-1.968 9.51-.455 19.231-.909 28.742-1.515 9.51-.605 18.808-1.362 28.318-1.817 6.974-.302 9.933 2.12 7.397 6.663-3.17 5.905-7.608 11.356-11.623 16.959-.423.605-1.057 1.363-1.902 1.665-2.325.606-4.65.758-7.186 1.212-.422-1.515-1.479-3.18-1.268-4.543.423-1.817 1.902-3.331 3.804-6.662z" fill="#001C2A"/></g><defs><clipPath id="clip0_52_496"><path fill="#fff" d="M0 0h193v29H0z"/></clipPath></defs></svg>