<svg width="468" height="138" fill="none" xmlns="http://www.w3.org/2000/svg"><g clip-path="url(#clip0_55_1275)"><path d="M47.001 70.391c12.194 2.114 22.144 3.624 31.61 5.339 5.453 1.042 11.549 2.222 5.406 5.474-20.546-2.665-41.26-4.687-59.707-8.322-7.86-1.495-8.324-3.26-3.794-5.993 1.618-1.011 3.878-1.886 5.816-2.705 11.138-4.467 22.277-8.934 33.898-13.36 3.713-1.489 8.23-2.991 14.485-1.716 5.613 1.139 5.11 3.067 2.199 4.79-3.396 1.926-7.594 3.62-11.631 5.41-2.907 1.23-6.135 2.513-7.44 4.209l5.798-.982c21.578-3.654 31.863-3.43 50.14 1.094 14.427 3.701 25.793 8.044 32.808 13.492 1.754 1.3 3.509 2.6 5.103 3.805 7.821 5.189 17.46 5.769 31.649 1.645 7.255-2.089 13.231-4.698 19.685-7.02 19.044-7.158 35.932-8.174 60.315-3.456 18.287 3.54 33.348 8.116 44.538 13.84 3.357 1.767 6.874 3.629 11.037 5.136 7.046 2.493 13.155 2.442 19.614-.373 7.104-2.923 12.443-6.162 18.264-9.36 4.202-2.186 7.282-4.55 11.966-6.696 9.691-4.345 23.06-6.977 40.253-6.325 12.853.527 25.864 1.395 38.391 2.47 8.19.701 14.762 2.415 14.882 6.204-4.176-.276-7.548-.565-11.243-.8-13.17-.964-26.341-1.93-39.836-2.593-13.014-.623-22.359 1.452-28.504 4.95-5.177 3.089-9.39 6.26-14.726 9.253-5.012 2.692-9.864 5.48-16.478 7.706-14.037 4.958-33.167 5.125-46.458.371-6.085-2.164-11.201-4.739-15.836-7.272-9.591-5.011-23.052-8.876-38.773-11.867-13.155-2.442-19.428-1.994-29.755 1.721-8.552 3.046-16.303 6.325-25.975 8.946-6.127 1.775-14.82 3.001-23.186 3.68-14.48 1.224-26.035-.506-32.905-4.38-3.514-2.11-6.866-4.368-9.091-6.695-5.57-5.324-17.423-9.215-30.567-12.642-6.413-1.618-13.158-2.196-21.853-.723-8.696 1.473-18.028 2.316-30.099 3.745z" fill="#001C2A"/></g><defs><clipPath id="clip0_55_1275"><path fill="#fff" transform="rotate(178.856 233.092 66.32)" d="M0 0h465v128H0z"/></clipPath></defs></svg>