<svg width="68" height="30" fill="none" xmlns="http://www.w3.org/2000/svg"><g clip-path="url(#clip0_69_2927)"><path d="M7.283 23.326c.872-.994 1.695-1.868 2.442-2.72 2.71-2.938 6.593-5.552 11.986-7.834 3.92-1.64 7.8-2.566 11.4-2.46 3.602.106 7.088.386 10.555.6 1.776.113 3.41.303 5.176.383 3.181.089 5.246-.516 8.144-2.244 3.462-2.069 5.368-4.35 5.64-6.82 2.418-.533 2.799.2 2.616.992A7.04 7.04 0 0163.736 6.3c-.987 1.168-2.365 2.415-3.953 3.513-3.999 2.789-8.195 4.053-13.124 3.95-2.923-.06-5.51-.391-8.3-.559-2.54-.17-5.157-.318-7.841-.41-2.015-.079-4.195.419-6.441 1.253-3.442 1.289-6.148 2.82-8.35 4.66a14.52 14.52 0 00-1.243 1.138 1607.204 1607.204 0 00-5.122 5.192c4.742-1.952 9.112-3.759 13.557-5.588.077-.023.354.072.62.135-.267.219-.43.512-.717.667-4.026 2.128-8.033 4.321-12.26 6.333-3.28 1.558-5.477 1.71-6.83.488-1.221-1.049-1.849-2.342-2.39-3.625-.172-.3.747-1.133 1.474-1.486.43-.232 1.92-.246 2.388-.067.916.295 1.326.843 2.08 1.43z" fill="#001C2A"/></g><defs><clipPath id="clip0_69_2927"><path fill="#fff" transform="rotate(163.677 32.996 9.922)" d="M0 0h67.18v10.597H0z"/></clipPath></defs></svg>