<svg width="501" height="403" fill="none" xmlns="http://www.w3.org/2000/svg"><g clip-path="url(#clip0_52_1059)"><path d="M489.954 519.532c3.463-1.612 4.934-1.72 6.155-2.55 68.261-68.312 104.268-143.989 98.936-227.103-1.283-20.998-9.099-40.527-22.173-57.819-27.602-37.313-81.183-51.001-135.45-34.911-28.318 8.255-54.356 20.166-74.305 40.88 1.854 11.088 4.156 22.019 4.861 32.699 1.048 17.438-4.742 34.024-20.368 48.374-11.32 10.826-24.779 15.519-33.97 12.249-12.063-4.291-15.585-14.392-12.646-24.724 4.05-14.36 10.146-28.625 16.942-42.324 4.465-8.84 11.551-17.38 17.739-25.608-21.841-38.107-75.883-38.687-127.395-1.707.218 6.398.562 13.156.332 19.711-1.551 24.414-12.49 46.437-36.766 63.398-9.312 6.484-20.15 11.478-31.764 7.03-8.743-3.426-12.265-13.528-8.609-26.132 6.129-19.941 19.726-37.226 35.172-53.536 5.598-5.594 11.195-11.187 16.918-16.42-30.986-60.006-117.02-80.182-177.303-30.838-1.187-4.847-3.02-8.659-1.98-11.449 1.363-3.308 5.795-6.471 9.58-8.601 36.122-19.069 72.821-27.819 109.782-15.619 27.769 8.931 49.618 23.971 67.539 43.619 2.478 2.778 4.956 5.556 7.883 8.177.125.361 1.148.409 3.32.865 3.912-1.768 8.847-3.489 13.531-5.931 57.474-28.538 93.407-26.5 136.946 8.897 4.881-3.32 10.658-6.953 15.861-10.79 31.274-21.426 65.567-34.192 103.831-37.014 62.259-4.714 112.758 21.783 134.156 70.162 11.677 26.275 14.902 54.284 11.595 83.762-8.35 71.294-40.072 136.171-101.806 192.9-2.96 3.055-6.494 5.906-9.454 8.961-.323.517-.52 1.395-1.111 4.029 16.259-2.432 30.238-8.52 44.343-14.248 13.782-5.21 27.76-11.298 42.762-17.338 1.925 9.85-3.098 15.647-9.97 20.471-8.218 5.293-16.184 11.308-25.031 14.798-23.974 9.168-48.523 18.133-73.575 25.654-19.668 5.644-27.945-.777-23.824-16.376 9.085-33.11 18.619-66.377 28.152-99.644 1.631-5.425 4.411-10.44 7.585-17.212 11.291 4.965 9.715 11.989 8.461 18.495-5.768 23.862-10.191 47.254-14.882 72.763zM149.767 311.611c29.823-14.041 43.579-36.641 37.126-59.478-16.863 18.019-33.207 34.643-37.126 59.478zm171.135 3.046c24.708-14.28 32.238-33.091 21.872-54.159-13.022 17.489-24.053 33.474-21.872 54.159z" fill="#0E8AD6"/></g><defs><clipPath id="clip0_52_1059"><path fill="#fff" transform="rotate(-19.223 538.11 91.124)" d="M0 0h553.539v518.341H0z"/></clipPath></defs></svg>