<svg width="167" height="176" fill="none" xmlns="http://www.w3.org/2000/svg"><g clip-path="url(#clip0_17_357)"><path d="M46.36 143.424c.494.374.553.626.795.715 19.24 1.523 39.725-4.021 61.282-18.3 5.448-3.596 10.376-8.149 14.61-13.304 9.149-11.011 11.595-22.982 6.263-30.311-2.746-3.847-6.397-6.693-12.215-7.018-2.852 2.114-5.654 4.284-8.423 6.123-4.525 2.983-8.97 4.581-13.04 4.027-3.059-.333-4.564-2.039-3.905-4.24.866-2.888 3.426-5.148 6.181-6.266 3.829-1.56 7.676-2.73 11.39-3.684 2.398-.6 4.773-.674 7.048-.862 9.478-10.087 8.496-20.043-2.225-23.525-1.663 1.064-3.418 2.209-5.132 3.216-6.397 3.626-12.368 5.155-17.3 3.44-1.885-.662-3.414-1.84-2.497-4.673.71-2.144 3.27-4.404 6.632-5.755 5.327-2.073 10.119-2.359 14.695-2.15 1.576.125 3.151.251 4.635.458 14.995-15.262 18.453-34.195 4.325-37.298 1.238-.993 2.194-1.938 2.943-2.194.891-.281 1.809.021 2.443.371 5.729 3.54 8.779 8.838 6.373 17.537-1.747 6.498-5.21 12.894-9.957 19.31-.672.897-1.344 1.794-1.966 2.748-.092.08-.083.275-.156.745.543.43 1.095 1.056 1.83 1.52 8.644 5.921 8.866 12.806.55 26.42.968.359 2.036.832 3.145 1.167 6.242 2.278 10.289 6.493 11.826 13.026 2.534 10.608-3.316 24.068-15.48 35.718-6.606 6.338-13.841 11.411-21.595 15.527-18.763 9.89-36.342 14.486-52.425 12.301-.86-.052-1.676-.24-2.535-.291-.142.024-.375.128-1.074.442.975 2.578 2.855 4.155 4.644 5.812 1.647 1.682 3.527 3.258 5.417 5.03-2.528 1.928-4.145 1.939-5.546 1.457-1.553-.652-3.288-1.143-4.383-2.199-2.893-2.908-5.744-5.954-8.23-9.322-1.884-2.687-.383-5.225 3.77-6.97 8.823-3.643 17.696-7.229 26.569-10.815 1.448-.57 2.814-.866 4.646-1.371-1.058 2.856-2.922 3.693-4.645 4.506-6.342 2.767-12.533 5.705-19.282 8.932zm47.08-95.378c4.285 3.195 10.466 2.088 16.285-2.746-5.052-.193-9.728-.515-16.285 2.746zm2.792 31.723c4.241 2.224 9.303.587 14.579-4.678-4.833.423-9.232.969-14.579 4.678z" fill="#001C2A"/></g><defs><clipPath id="clip0_17_357"><path fill="#fff" transform="rotate(48.558 62.014 137.48)" d="M0 0h88.34v165.453H0z"/></clipPath></defs></svg>