<svg width="71" height="72" fill="none" xmlns="http://www.w3.org/2000/svg"><g clip-path="url(#clip0_52_888)"><path fill-rule="evenodd" clip-rule="evenodd" d="M46.11 24.45c.132-1.812.206-3.86.176-5.863a34.02 34.02 0 00-.25-3.962 13.391 13.391 0 00-.516-3.462 3.02 3.02 0 00-1.532-1.71 7.709 7.709 0 00-2.696-.633 35.56 35.56 0 00-3.594.06c-1.562.058-3.639-.398-5.51-.384a7.562 7.562 0 00-2.843.516c-.58.3-1.054.774-1.355 1.355-.39.857-.677 1.757-.855 2.681a27.284 27.284 0 00-.736 4.508 50.263 50.263 0 00.118 6.659c.309 4.935 2.342 3.344-4.582 2.96l-7.307-.117a22.064 22.064 0 00-3.388.03 4.167 4.167 0 00-2.43 1.31 4.396 4.396 0 00-.943 1.71 22.19 22.19 0 00-.56 2.386 12.6 12.6 0 00-.31 1.87l-.044 1.842a16.77 16.77 0 00.943 4.743 7.48 7.48 0 001.738 2.917c.34.288.745.49 1.179.59.771.105 1.549.155 2.327.147l11.24.133a.708.708 0 00.708-.708.75.75 0 00-.722-.721l-11.137-.295c-.516-.044-1.179 0-1.783-.103a1.293 1.293 0 01-.707-.265 5.938 5.938 0 01-1.222-2.284 15.167 15.167 0 01-.825-4.213 13.39 13.39 0 011.487-6.496c.355-.372.83-.607 1.341-.663a21.87 21.87 0 013.035.088l7.056.28c.604.044 3.094.56 4.596.59a2.854 2.854 0 001.886-.472c.405-.405.664-.934.736-1.503a23.38 23.38 0 00-.147-3.86 49.25 49.25 0 01-.03-5.303c.096-1.72.363-3.428.796-5.097.78-3.108 2.49-2.49 2.608-2.607 1.856 0 3.962.456 5.51.383.971-.03 2.165-.103 3.299-.03a5.293 5.293 0 011.753.398c.28.133.28.516.339.87.132.75.147 1.56.206 2.15.132 1.223.2 2.453.206 3.683a55.033 55.033 0 01-.206 5.686c-.059.737-.324 1.856-.412 2.829a5.167 5.167 0 00.073 1.694 1.709 1.709 0 001.238 1.237 8.663 8.663 0 002.018.044c1.694.103 3.447.06 5.185.148.696.026 1.389.09 2.077.191 1.52.15 3.023.43 4.494.84A4.854 4.854 0 0160 32.45c.192.191.015.545-.03.883-.044.34-.176.943-.235 1.297a48.944 48.944 0 00-.354 5.362c-.048.696-.132 1.39-.25 2.077-.265 1.385-1.591 1.945-3.123 2.328-2.663.436-5.36.628-8.058.574a30.572 30.572 0 00-3.212-.118 2.895 2.895 0 00-1.9 1.046 5.752 5.752 0 00-.796 1.71 27.091 27.091 0 00-.633 3.579 63.695 63.695 0 01-.87 4.375c-.353 1.473-.441 2.858-.927 4.316l-.825 3.123a7.99 7.99 0 01-1.43.045c-1.28-.103-2.769-.383-3.328-.383a23.814 23.814 0 01-4.11-.398 4.168 4.168 0 01-2.004-.943 2.646 2.646 0 01-.53-1.149 20.83 20.83 0 01-.206-2.504 28.665 28.665 0 01-.118-5.333c.107-1.794.353-3.577.736-5.333a.813.813 0 10-1.576-.339 35.806 35.806 0 00-.913 5.51 31.241 31.241 0 00.044 5.613c.022.911.096 1.821.22 2.725.139.737.463 1.427.944 2.003a5.708 5.708 0 002.975 1.591 25.47 25.47 0 004.405.486c1.477.259 2.967.431 4.464.516a2.896 2.896 0 001.694-.486c.295-.304.526-.665.677-1.06.369-.929.56-2.387.84-3.08a55.266 55.266 0 001.267-4.419 69.56 69.56 0 00.958-4.523c.132-.75.265-1.856.53-2.857.09-.502.285-.98.574-1.4.177-.177.442-.177.737-.177.928-.014 2.003.236 2.71.236 3.36.168 6.725-.16 9.988-.972a5.125 5.125 0 003.55-3.786c.146-.785.25-1.577.31-2.372.044-1.71.177-3.416.398-5.112a11.69 11.69 0 00.324-2.622 2.875 2.875 0 00-.663-1.724 7.271 7.271 0 00-3.315-1.988 27.313 27.313 0 00-4.92-.973 20.69 20.69 0 00-2.328-.206c-1.723-.103-3.461-.044-5.14-.162l-.826.03c.06-1.09.383-2.21.383-3.006z" fill="#0E8AD6"/></g><defs><clipPath id="clip0_52_888"><path fill="#fff" transform="rotate(-45 43.456 18)" d="M0 0h50v50H0z"/></clipPath></defs></svg>