<svg width="64" height="43" fill="none" xmlns="http://www.w3.org/2000/svg"><g clip-path="url(#clip0_32_48)"><path d="M8.773 35.484c.516-1.32 1.027-2.487 1.47-3.618 1.658-3.918 4.594-7.585 9.14-11.032 3.313-2.483 6.835-4.088 10.441-4.401 3.606-.313 7.16-.4 10.671-.562 1.8-.08 3.485-.05 5.265-.168 3.183-.283 5.018-1.274 7.287-3.738 2.708-2.95 3.8-5.967 3.207-9.016 2.21-.946 2.843-.1 2.938.89.131 1.217.08 2.583-.417 3.941-.569 1.547-1.499 3.238-2.69 4.773-2.988 3.894-6.705 5.951-11.627 6.43-2.917.287-5.598.2-8.421.337a201.24 201.24 0 00-7.916.46c-2.025.153-4.01 1.028-5.946 2.32-2.96 1.996-5.108 4.197-6.646 6.712a13.039 13.039 0 00-.836 1.542c-1.062 2.258-2.125 4.517-3.261 6.964 4.018-2.963 7.717-5.704 11.484-8.482.068-.037.375.045.662.088-.189.3-.248.679-.478.902-3.247 3.092-6.452 6.26-9.938 9.233-2.706 2.304-4.831 2.758-6.6 1.435-1.576-1.13-2.65-2.632-3.636-4.13-.275-.348.345-1.475.942-1.996.346-.335 1.818-.536 2.344-.374 1.011.246 1.609.865 2.56 1.49z" fill="#001C2A"/></g><defs><clipPath id="clip0_32_48"><path fill="#fff" transform="rotate(151.623 30.382 14.09)" d="M0 0h65.129v13.691H0z"/></clipPath></defs></svg>