<svg width="261" height="131" fill="none" xmlns="http://www.w3.org/2000/svg"><g clip-path="url(#clip0_52_900)"><path d="M0 68.822c17.317-23.09 83.524-42.87 126.063-38.573 45.995 4.523 70.085 16.69 114.924 58.572.337-4.243.293-7.716.719-10.854.355-3.588.762-7.38 1.813-10.792.257-1.017 2.285-2.45 3.378-2.389 1.094.06 2.47 1.925 2.56 3.03.652 10.551.956 21.015 1.383 31.726.043 3.473-1.618 5.648-4.828 5.916-12.116.39-24.283.983-36.52 1.125-2.76-.05-5.68-1.656-9.154-2.537 4.996-8.038 10.991-5.436 16.074-6.527 5.309-1.25 10.707-1.396 17.405-2.294-11.53-15.041-24.316-25.857-38.64-34.25-52.398-31.032-108.013-30.42-165.51-5.62C22.175 58.65 15 62.888 7.631 66.43c-2.169.532-4.164 1.108-7.632 2.392z" fill="#001C2A"/></g><defs><clipPath id="clip0_52_900"><path fill="#fff" transform="rotate(14.23 8.726 69.91)" d="M0 0h251v71H0z"/></clipPath></defs></svg>