<svg width="59" height="51" fill="none" xmlns="http://www.w3.org/2000/svg"><g clip-path="url(#clip0_32_46)"><path d="M49.336 41.841c-19.61-7.166-34.84-19.178-46.862-36.07 1.9-.065 2.552 1.072 3.129 1.844C10.18 13.377 15.822 18.168 21.37 22.96c7.986 6.917 17.018 11.628 26.665 15.236.41.179.838.22 1.807.393-3.332-3.762-8.081-5.772-10.388-9.774.205-.139.391-.37.596-.509 2.626 1.895 5.307 3.834 7.97 5.683 2.662 1.848 5.306 3.605 7.931 5.5 1.918 1.398 2.103 2.768.314 3.61-2.292 1.12-4.807 1.831-7.248 2.679-.261.094-.615.189-.913.1-.764-.312-1.416-.763-2.198-1.167.261-.551.392-1.284.784-1.654.56-.463 1.323-.608 2.646-1.216z" fill="#001C2A"/></g><defs><clipPath id="clip0_32_46"><path fill="#fff" transform="rotate(38.965 3.571 10.094)" d="M0 0h65.602v11.357H0z"/></clipPath></defs></svg>