<svg width="91" height="85" fill="none" xmlns="http://www.w3.org/2000/svg"><g clip-path="url(#clip0_32_53)"><path d="M70.438 64.519c-1.206-1.976-2.233-3.538-3.154-5.09-.52-.906-1.097-1.923.39-1.95 2.215 3.117 4.583 6.103 6.317 9.196.75 1.305.453 1.78-.712 1.878-.423.044-.905-.022-1.332-.063-2.406-.29-4.811-.58-7.273-.938-.802-.097-1.714-.288-2.294-1.347-.521-.949-.06-1.345.681-1.4.849-.046 1.757.061 2.664.126.64.06 1.336.147 1.857-.096l-.979-.47c-3.64-1.745-4.975-3.043-6.506-6.326-1.182-2.623-1.822-5.026-1.653-7.165.03-.52.06-1.041.09-1.52.009-2.174-1.167-3.478-3.912-4.219-1.4-.383-2.733-.488-4.073-.72-4.015-.61-6.489-2.412-8.8-6.48-1.732-3.052-2.82-5.958-3.156-8.668-.09-.824-.183-1.69-.434-2.551-.438-1.444-1.268-2.17-2.709-2.286-1.549-.167-2.926-.046-4.359.006-1.01.01-1.905.197-2.97.138-2.187-.144-4.518-1.138-6.693-3.373a92.819 92.819 0 01-4.649-5.231c-.956-1.158-1.489-2.359-.733-3.27.505.57.898 1.047 1.346 1.55 1.571 1.822 3.142 3.644 4.818 5.434 1.62 1.723 3.297 2.363 4.835 2.278 1.324-.105 2.536-.346 3.863-.41 1.221-.03 2.44-.103 3.782.17 2.895.525 5.496 2.8 6.311 5.534.376 1.25.538 2.478.643 3.639.266 2.347 1.285 4.891 2.785 7.502 1.268 2.17 2.201 2.824 4.344 3.194 1.769.313 3.478.475 5.31 1.024 1.184.322 2.601 1.083 3.862 1.935 2.193 1.462 3.391 3.27 3.524 5.02.041.924.03 1.864-.145 2.685-.338 1.934.46 4.29 1.526 6.692.53 1.16 1.318 2.113 2.785 2.816 1.467.704 2.892 1.634 4.803 2.756z" fill="#001C2A"/></g><defs><clipPath id="clip0_32_53"><path fill="#fff" transform="rotate(40.062 12.872 35.307)" d="M0 0h84v40H0z"/></clipPath></defs></svg>