<svg width="257" height="111" fill="none" xmlns="http://www.w3.org/2000/svg"><g clip-path="url(#clip0_52_904)"><path d="M28.294 82.817c3.226-4.683 6.28-8.76 9.045-12.775 10.045-13.75 24.611-24.897 44.976-33.15 14.805-5.9 29.534-7.995 43.304-4.769 13.77 3.226 27.119 7.301 40.388 11.016 6.8 1.915 13.059 4.138 19.819 5.873 12.162 2.822 19.988 1.105 30.88-6.017 13.012-8.534 20.055-19.355 20.839-32.399 9.182-1.068 10.713 3.14 10.096 7.25-.709 5.077-2.247 10.526-5.433 15.39-3.647 5.532-8.782 11.202-14.735 15.915-14.987 11.996-30.887 15.673-49.73 11.478-11.174-2.47-21.097-6.161-31.771-9.12-9.725-2.788-19.739-5.513-30.004-7.993-7.709-1.905-15.982-.847-24.479 1.963-13.015 4.37-23.196 10.579-31.413 18.818a49.857 49.857 0 00-4.635 5.181 5925 5925 0 00-19.025 24.05c17.915-6.959 34.42-13.42 51.215-19.944.29-.063 1.357.65 2.385 1.18-1 .978-1.593 2.433-2.673 3.048-15.16 8.437-30.24 17.235-46.179 24.897-12.368 5.931-20.748 5.12-26.049-2.425-4.773-6.525-7.306-13.92-9.51-21.197-.687-1.743 2.737-5.523 5.477-6.88 1.62-.924 7.312.099 9.118 1.406 3.532 2.254 5.154 5.495 8.094 9.204z" fill="#001C2A"/></g><defs><clipPath id="clip0_52_904"><path fill="#fff" transform="rotate(167.626 125.329 42.279)" d="M0 0h250.174v58.067H0z"/></clipPath></defs></svg>