<svg width="193" height="40" fill="none" xmlns="http://www.w3.org/2000/svg"><g clip-path="url(#clip0_52_902)"><path d="M173.928 21.13C115.811 44.938 58.751 45.773 0 26.141c4.227-4.386 7.82-2.715 10.567-1.88 21.133 5.64 42.9 6.266 64.457 7.101 31.066 1.253 60.441-5.848 89.183-17.335 1.268-.418 2.325-1.253 4.861-2.924-14.582-2.924-29.165 2.089-41.845-3.76.212-.835.212-1.879.423-2.714 9.51-.627 19.231-1.253 28.742-2.089 9.51-.835 18.808-1.88 28.318-2.506 6.974-.418 9.933 2.924 7.397 9.19-3.17 8.145-7.608 15.664-11.623 23.391-.423.836-1.057 1.88-1.902 2.298-2.325.835-4.65 1.044-7.186 1.67-.422-2.088-1.479-4.386-1.268-6.265.423-2.506 1.902-4.595 3.804-9.19z" fill="#001C2A"/></g><defs><clipPath id="clip0_52_902"><path fill="#fff" d="M0 0h193v40H0z"/></clipPath></defs></svg>