<svg width="595" height="457" fill="none" xmlns="http://www.w3.org/2000/svg"><g filter="url(#filter0_d_667_44)"><g filter="url(#filter1_d_667_44)"><path d="M358.563 101.962c6.311-2.242 16.259-5.42 16.259-5.42s-15.437 11.054-16.192 11.465l-12.77 12.032s-7.283 7.096-11.637 11.616c-4.945 5.134-7.313 7.442-11.045 13.625-4.285 7.101-6.618 11.449-9.843 19.254-2.985 7.222-4.734 11.345-6.241 19.013-1.673 8.514-1.342 13.505-1.272 22.182.061 7.608 1.185 11.834 1.272 19.442.095 8.312.254 13.046-1.01 21.263-1.33 8.646-5.832 21.628-5.832 21.628s-1.882 14.471-2.392 23.806c-.366 6.681.19 17.127.19 17.127l-22.97-2.767s-9.272-2.778-15.276-6.481c-5.995-3.698-9.292-6.429-13.42-12.346-4.605-6.599-7.843-14.519-10.664-22.452-.856-2.409-3.317-13.603-2.766-24.958.65-13.419 2.486-21.078 7.218-33.534 4.401-11.584 8.315-17.412 15.254-27.576 6.736-9.867 11.24-15.01 19.474-23.593 10.763-11.22 17.671-16.617 30.076-25.726 9.507-6.981 15.455-10.373 26.035-15.807 10.411-5.347 16.353-7.813 27.552-11.793z" fill="url(#paint0_linear_667_44)"/></g><g filter="url(#filter2_d_667_44)"><path d="M360.244 106.149c5.411-4.058 14.412-9.605 14.412-9.605s-2.163 6.659-3.078 11.489c-1.069 5.638-2.619 13.693-2.619 13.693s-1.9 9.886-2.328 16.303c-.378 5.676-.319 8.887 0 14.566.371 6.583 1.088 10.235 2.045 16.759.971 6.62 2.087 10.244 2.902 16.886 1.107 9.029 2.043 14.226 1.564 23.311-.59 11.19-.809 17.811-3.845 28.597-2.731 9.699-4.662 15.29-9.373 24.273-3.857 7.356-6.441 11.415-11.775 17.783-6.01 7.174-10.387 10.478-18.039 15.774-6.961 4.817-14.509 8.384-19.505 9.46l-12.79 2.754s-.385-10.411-.19-17.078c.24-8.191.107-12.889 1.653-20.917.769-3.99 1.538-6.142 2.528-10.076 1.545-6.14 2.917-9.46 3.974-15.718 2.347-13.898-.402-36.166-.402-36.166s-.657-16.405 1.591-26.543c1.889-8.52 7.686-20.984 7.686-20.984s6.499-13.79 12.204-21.637c5.016-6.898 8.537-10.239 14.561-16.277 6.93-6.948 10.973-10.76 18.824-16.647z" fill="url(#paint1_linear_667_44)"/></g><g filter="url(#filter3_d_667_44)"><path d="M276.061 289.443l-3.644 16.21s5.627 1.658 9.325 2.314c4.112.73 6.464 1.053 10.653 1.075 4.422.024 6.972-.043 11.295-1.075 3.991-.952 9.546-3.218 10.093-3.491.448-.224.062.326-.478-1.178-1.413-3.928-2.685-9.355-2.685-9.355s-1.292-8.704-1.678-14.354c-.386-5.651.527-13.947 2.478-22.66 1.489-6.643 2.555-10.377 5.244-16.667 4.254-9.951 14.779-23.554 14.779-23.554s-10.551 8.496-16.379 14.861c-5.213 5.693-12.085 15.616-12.085 15.616l-9.172 13.375s-1.949-9.321-3.651-15.159c-2.188-7.502-3.887-11.549-6.751-18.79-3.549-8.97-9.968-22.554-9.968-22.554l4.363 23.709s2.313 14.324 2.307 22.699c-.007 9.14.14 12.579-.663 21.455-.538 5.938-3.383 17.523-3.383 17.523z" fill="#fff"/></g><g filter="url(#filter4_d_667_44)"><path d="M304.549 195.281c2.03-1.417 5.666-2.722 9.277-1.917 3.147.701 5.204 1.521 6.882 4.559.968 1.752 1.221 4.639 1.034 7.646-.395 6.348-4.568 12.142-7.621 14.393-3.052 2.251-6.108 3.499-10.029 2.53-3.012-.745-4.729-2.018-6.503-4.563-2.702-3.879-1.97-7.53-.703-12.084 1.366-4.91 5.633-9.148 7.663-10.564z" fill="#fff"/></g></g><g filter="url(#filter5_d_667_44)"><g filter="url(#filter6_d_667_44)"><path d="M142.03 12.886c-3.179-.512-8.159-1.148-8.159-1.148s8.26 3.882 8.653 4.011l7.084 4.577s4.06 2.721 6.512 4.48c2.785 1.996 4.105 2.881 6.407 5.48 2.644 2.984 4.125 4.837 6.329 8.246 2.04 3.155 3.225 4.952 4.605 8.446 1.532 3.88 1.809 6.268 2.531 10.376.633 3.602.47 5.698 1.091 9.302.678 3.939 1.014 6.19 2.327 9.965 1.381 3.972 4.639 9.718 4.639 9.718s2.149 6.678 3.203 11.046c.754 3.127 1.4 8.114 1.4 8.114l10.618-3.307s4.142-2.12 6.658-4.393c2.513-2.27 3.834-3.848 5.271-7.004 1.603-3.52 2.445-7.547 3.088-11.543.195-1.213.385-6.72-.864-12.04-1.475-6.287-3.009-9.749-6.33-15.225-3.089-5.094-5.446-7.509-9.611-11.71-4.043-4.08-6.62-6.119-11.259-9.46-6.065-4.368-9.801-6.319-16.458-9.546-5.102-2.473-8.209-3.559-13.684-5.207-5.387-1.623-8.411-2.271-14.051-3.178z" fill="url(#paint2_linear_667_44)"/></g><g filter="url(#filter7_d_667_44)"><path d="M141.599 15.01c-2.911-1.447-7.649-3.286-7.649-3.286s1.602 2.96 2.455 5.163c.996 2.573 2.429 6.247 2.429 6.247s1.759 4.508 2.519 7.504c.673 2.65.925 4.174 1.268 6.887.397 3.144.376 4.934.491 8.1.117 3.215-.095 5.026.097 8.236.263 4.366.272 6.904 1.289 11.157 1.253 5.24 1.932 8.35 4.306 13.186 2.135 4.348 3.535 6.822 6.543 10.66 2.464 3.142 4.039 4.836 7.115 7.382 3.465 2.87 5.822 4.05 9.9 5.888 3.71 1.672 7.589 2.702 10.044 2.776l6.287.189s-.724-4.956-1.396-8.09c-.826-3.852-1.172-6.085-2.602-9.746-.71-1.82-1.261-2.77-2.071-4.543-1.265-2.769-2.203-4.22-3.247-7.086-2.318-6.366-2.957-17.133-2.957-17.133s-1.116-7.813-3.061-12.41c-1.635-3.864-5.46-9.252-5.46-9.252s-4.272-5.954-7.652-9.167c-2.971-2.825-4.927-4.098-8.3-6.429-3.881-2.682-6.124-4.132-10.348-6.232z" fill="url(#paint3_linear_667_44)"/></g><g filter="url(#filter8_d_667_44)"><path d="M197.347 94.342l3.132 7.346s-2.515 1.274-4.206 1.906c-1.881.703-2.965 1.06-4.943 1.435-2.089.396-3.3.586-5.434.475-1.97-.103-4.793-.691-5.075-.773-.232-.067-.002.16.123-.598.327-1.98.456-4.656.456-4.656s-.147-4.228-.456-6.933c-.309-2.705-1.463-6.547-3.143-10.497-1.282-3.011-2.111-4.683-3.929-7.423-2.877-4.335-9.037-9.85-9.037-9.85s5.727 3.099 9.037 5.6c2.96 2.238 7.072 6.332 7.072 6.332l5.5 5.525s.11-4.576.407-7.484c.382-3.737.833-5.798 1.557-9.47.897-4.55 2.75-11.531 2.75-11.531v11.589s.153 6.973.884 10.931c.799 4.321 1.029 5.96 2.181 10.086.77 2.76 3.124 7.99 3.124 7.99z" fill="#fff"/></g><g filter="url(#filter9_d_667_44)"><path d="M175.686 52.304c-1.083-.493-2.916-.794-4.553-.1-1.427.606-2.328 1.173-2.857 2.755-.305.913-.174 2.3.177 3.705.739 2.966 3.215 5.343 4.855 6.141 1.639.799 3.192 1.123 4.961.324 1.359-.615 2.061-1.366 2.678-2.723.94-2.069.276-3.731-.719-5.774-1.073-2.203-3.459-3.835-4.542-4.328z" fill="#fff"/></g></g><g filter="url(#filter10_d_667_44)"><g filter="url(#filter11_d_667_44)"><path d="M354.477 44.641c1.993-.386 5.119-.887 5.119-.887s-5.128 2.613-5.373 2.702l-4.372 3.026s-2.505 1.797-4.014 2.954c-1.715 1.314-2.529 1.899-3.928 3.582-1.606 1.934-2.503 3.132-3.823 5.324-1.222 2.03-1.933 3.186-2.732 5.415-.888 2.476-1.015 3.987-1.387 6.59-.327 2.283-.181 3.6-.5 5.884-.349 2.496-.516 3.922-1.267 6.327-.791 2.53-2.728 6.217-2.728 6.217s-1.22 4.251-1.797 7.026c-.412 1.985-.719 5.141-.719 5.141l-6.758-1.871s-2.653-1.253-4.284-2.634c-1.629-1.38-2.494-2.349-3.463-4.309-1.08-2.186-1.692-4.707-2.177-7.212-.148-.76-.378-4.227.302-7.605.803-3.992 1.701-6.204 3.684-9.722 1.844-3.272 3.281-4.841 5.821-7.573 2.466-2.651 4.049-3.988 6.906-6.187 3.734-2.875 6.049-4.179 10.18-6.346 3.165-1.661 5.101-2.408 8.519-3.557 3.362-1.13 5.255-1.6 8.791-2.285z" fill="url(#paint4_linear_667_44)"/></g><g filter="url(#filter12_d_667_44)"><path d="M354.791 45.972c1.806-.97 4.755-2.225 4.755-2.225s-.95 1.898-1.443 3.303c-.576 1.642-1.406 3.985-1.406 3.985s-1.018 2.877-1.437 4.78c-.37 1.684-.498 2.65-.66 4.366-.187 1.99-.138 3.116-.147 5.115-.009 2.028.161 3.165.104 5.192-.078 2.756-.033 4.356-.588 7.057-.684 3.326-1.05 5.3-2.449 8.396-1.258 2.782-2.09 4.37-3.909 6.849-1.49 2.03-2.448 3.129-4.336 4.795-2.126 1.878-3.587 2.669-6.121 3.909-2.304 1.129-4.728 1.855-6.274 1.951l-3.958.246s.357-3.138.718-5.127c.443-2.444.616-3.857 1.443-6.193.412-1.161.74-1.771 1.215-2.905.741-1.77 1.303-2.703 1.903-4.53 1.334-4.06 1.52-10.857 1.52-10.857s.546-4.946 1.68-7.883c.952-2.467 3.254-5.94 3.254-5.94s2.573-3.838 4.639-5.93c1.816-1.84 3.023-2.682 5.101-4.219 2.392-1.768 3.777-2.727 6.396-4.135z" fill="url(#paint5_linear_667_44)"/></g><g filter="url(#filter13_d_667_44)"><path d="M321.253 97.086l-1.827 4.692s1.611.752 2.689 1.117c1.199.405 1.89.608 3.144.805 1.324.207 2.091.303 3.434.19 1.239-.105 3.007-.532 3.183-.589.144-.047.004.1-.09-.375-.246-1.241-.381-2.925-.381-2.925s.008-2.667.148-4.378c.141-1.71.79-4.156 1.77-6.678.748-1.924 1.236-2.994 2.327-4.757 1.726-2.79 5.497-6.39 5.497-6.39s-3.547 2.069-5.582 3.712c-1.82 1.47-4.33 4.132-4.33 4.132l-3.355 3.593s-.161-2.882-.407-4.709c-.315-2.347-.641-3.637-1.171-5.937-.657-2.85-1.965-7.211-1.965-7.211l.233 7.303s.044 4.397-.338 6.907c-.416 2.739-.528 3.776-1.171 6.4-.43 1.755-1.808 5.098-1.808 5.098z" fill="#fff"/></g><g filter="url(#filter14_d_667_44)"><path d="M334.059 70.158c.673-.332 1.822-.558 2.867-.154.912.353 1.491.692 1.856 1.679.211.569.156 1.445-.037 2.338-.406 1.884-1.919 3.432-2.936 3.968s-1.989.772-3.12.303c-.869-.36-1.326-.819-1.742-1.662-.634-1.285-.249-2.346.337-3.653.632-1.41 2.103-2.486 2.775-2.819z" fill="#fff"/></g></g><g filter="url(#filter15_d_667_44)"><g filter="url(#filter16_d_667_44)"><path d="M273.994 14.225c3.33-2.24 8.634-5.565 8.634-5.565s-7.32 8.714-7.697 9.065l-5.625 8.884s-3.174 5.203-5.03 8.475c-2.107 3.716-3.139 5.408-4.387 9.553-1.432 4.76-2.14 7.632-2.852 12.643-.659 4.637-1.062 7.29-.797 11.967.295 5.192 1.229 8.04 2.56 13.068 1.167 4.409 2.447 6.695 3.629 11.1 1.291 4.812 2.088 7.537 2.576 12.495.513 5.218-.171 13.425-.171 13.425s1.059 8.682 2.151 14.178c.781 3.934 2.657 9.916 2.657 9.916l-13.748 1.809s-5.797-.235-9.833-1.492c-4.031-1.255-6.352-2.351-9.628-5.172-3.655-3.147-6.713-7.265-9.53-11.451-.855-1.271-3.949-7.405-5.317-14.08-1.618-7.888-1.691-12.608-.795-20.543.833-7.38 2.239-11.347 4.756-18.28 2.444-6.73 4.295-10.386 7.799-16.594 4.581-8.114 7.79-12.275 13.638-19.409 4.481-5.466 7.431-8.32 12.766-13.048 5.25-4.653 8.333-6.968 14.244-10.944z" fill="url(#paint6_linear_667_44)"/></g><g filter="url(#filter17_d_667_44)"><path d="M275.592 16.405c2.538-3.16 6.939-7.719 6.939-7.719s-.265 4.188-.078 7.128c.217 3.433.515 8.34.515 8.34s.367 6.022 1.073 9.812c.624 3.352 1.135 5.207 2.166 8.457 1.193 3.767 2.153 5.781 3.679 9.427 1.548 3.7 2.735 5.637 4.195 9.372 1.985 5.078 3.302 7.957 4.374 13.303 1.321 6.584 2.179 10.461 2.02 17.176-.143 6.037-.434 9.57-1.833 15.486-1.146 4.845-2.043 7.586-4.193 12.076-2.422 5.059-4.473 7.628-8.128 11.841-3.326 3.832-7.178 7.025-9.918 8.393l-7.017 3.501s-1.772-5.988-2.65-9.888c-1.078-4.791-1.854-7.499-2.15-12.391-.147-2.431-.02-3.794-.03-6.226-.016-3.794.287-5.926-.03-9.717-.704-8.418-5.611-20.939-5.611-20.939s-2.821-9.427-3.023-15.647c-.17-5.228 1.343-13.327 1.343-13.327s1.723-8.973 3.869-14.377c1.886-4.751 3.434-7.215 6.033-11.616 2.991-5.065 4.772-7.879 8.455-12.465z" fill="url(#paint7_linear_667_44)"/></g><g filter="url(#filter18_d_667_44)"><path d="M253.968 135.346l.294 9.953s3.513.127 5.758-.042c2.496-.188 3.91-.35 6.345-.96 2.571-.644 4.042-1.062 6.399-2.303 2.176-1.147 5.064-3.288 5.341-3.528.227-.197.084.18-.453-.613-1.405-2.071-2.95-5.032-2.95-5.032s-2.044-4.862-3.108-8.085c-1.065-3.224-1.768-8.176-1.931-13.525-.123-4.079-.059-6.405.567-10.457.99-6.41 5.078-15.874 5.078-15.874s-4.862 6.502-7.3 11.064c-2.18 4.081-4.694 10.864-4.694 10.864l-3.338 9.13s-2.517-5.123-4.373-8.259c-2.386-4.03-3.974-6.127-6.714-9.906-3.394-4.68-9.141-11.614-9.141-11.614l6.059 13.118s3.472 7.972 4.714 12.836c1.355 5.308 1.952 7.283 2.805 12.556.571 3.527.642 10.677.642 10.677z" fill="#fff"/></g><g filter="url(#filter19_d_667_44)"><path d="M256.507 76.439c.968-1.125 2.885-2.423 5.102-2.493 1.931-.06 3.247.11 4.673 1.624.823.873 1.399 2.512 1.737 4.286.715 3.744-.846 7.729-2.284 9.49-1.438 1.76-3.026 2.94-5.447 2.96-1.86.015-3.046-.469-4.454-1.683-2.146-1.85-2.264-4.079-2.205-6.911.062-3.054 1.91-6.15 2.878-7.273z" fill="#fff"/></g></g><g filter="url(#filter20_d_667_44)"><g filter="url(#filter21_d_667_44)"><path d="M101.525 76.11C95.108 74.008 85 71.054 85 71.054s15.822 10.706 16.592 11.1L114.745 93.9s7.506 6.932 11.999 11.353c5.104 5.022 7.544 7.277 11.447 13.375 4.483 7.004 6.933 11.299 10.361 19.03 3.173 7.154 5.03 11.236 6.721 18.869 1.878 8.474 1.655 13.472 1.778 22.148.108 7.608-.932 11.857-.85 19.466.09 8.312.035 13.049 1.493 21.235 1.535 8.614 6.367 21.492 6.367 21.492s2.221 14.426 2.945 23.747c.518 6.672.19 17.128.19 17.128l23.112-3.28s9.293-2.984 15.268-6.819c5.966-3.831 9.232-6.636 13.265-12.642 4.498-6.701 7.589-14.691 10.258-22.685.81-2.427 3.043-13.673 2.234-25.014-.955-13.4-2.978-21.017-8.03-33.364-4.699-11.483-8.778-17.222-16.006-27.229-7.016-9.714-11.675-14.756-20.173-23.153-11.109-10.977-18.2-16.218-30.919-25.049-9.746-6.767-15.823-10.025-26.619-15.222-10.623-5.113-16.673-7.447-28.061-11.175z" fill="url(#paint8_linear_667_44)"/></g><g filter="url(#filter22_d_667_44)"><path d="M99.923 80.332c-5.55-3.936-14.755-9.28-14.755-9.28s2.33 6.609 3.362 11.416c1.204 5.613 2.947 13.632 2.947 13.632s2.138 9.841 2.712 16.247c.509 5.666.521 8.877.325 14.562-.227 6.59-.87 10.257-1.689 16.801-.832 6.64-1.877 10.288-2.55 16.946-.916 9.052-1.745 14.268-1.059 23.34.845 11.174 1.213 17.789 4.517 28.505 2.971 9.635 5.045 15.181 9.998 24.057 4.056 7.269 6.753 11.269 12.277 17.517 6.223 7.037 10.713 10.243 18.552 15.367 7.13 4.661 14.825 8.059 19.889 9.023l12.966 2.468s.156-10.417-.19-17.079c-.424-8.183-.395-12.882-2.134-20.875-.865-3.971-1.689-6.105-2.775-10.016-1.696-6.104-3.154-9.393-4.36-15.626-2.677-13.842-.401-36.166-.401-36.166s.297-16.415-2.197-26.501c-2.096-8.476-8.223-20.807-8.223-20.807s-6.865-13.642-12.795-21.359c-5.214-6.785-8.842-10.047-15.054-15.95-7.147-6.79-11.311-10.511-19.363-16.222z" fill="url(#paint9_linear_667_44)"/></g><g filter="url(#filter23_d_667_44)"><path d="M188.945 261.704l4.038 16.124s-5.64 1.783-9.356 2.522c-4.132.821-6.499 1.197-10.724 1.312-4.461.122-7.036.112-11.42-.822-4.048-.863-9.703-3.005-10.261-3.266-.457-.214-.056.327.456-1.188 1.338-3.959 2.501-9.413 2.501-9.413s1.109-8.73 1.372-14.388c.264-5.658-.842-13.931-3.006-22.599-1.649-6.608-2.808-10.317-5.661-16.545-4.514-9.854-15.436-23.219-15.436-23.219s10.833 8.258 16.856 14.492c5.386 5.575 12.54 15.342 12.54 15.342l9.553 13.168s1.758-9.363 3.346-15.237c2.04-7.549 3.663-11.633 6.392-18.936 3.379-9.047 9.553-22.771 9.553-22.771l-3.873 23.801s-2.014 14.371-1.821 22.744c.21 9.139.139 12.579 1.147 21.435.675 5.925 3.804 17.444 3.804 17.444z" fill="#fff"/></g><g filter="url(#filter24_d_667_44)"><path d="M158.103 168.2c-2.08-1.371-5.778-2.595-9.403-1.71-3.159.771-5.217 1.637-6.842 4.711-.938 1.774-1.128 4.665-.872 7.668.54 6.337 4.879 12.037 8.009 14.219 3.13 2.182 6.241 3.363 10.175 2.306 3.022-.812 4.727-2.123 6.459-4.707 2.64-3.938 1.82-7.572.441-12.096-1.488-4.879-5.888-9.021-7.967-10.391z" fill="#fff"/></g></g><g filter="url(#filter25_d_667_44)" fill="#18A10A"><path d="M57.3 314H22.6l.1 59H9.9v-70h47.5l-.1 11zm47.143 5.6V373h-11.9v-6.9c-2.067 2.533-4.633 4.433-7.7 5.7-3 1.267-6.333 1.9-10 1.9-5.2 0-9.867-1.133-14-3.4-4.067-2.267-7.267-5.467-9.6-9.6-2.267-4.133-3.4-8.933-3.4-14.4 0-5.467 1.133-10.233 3.4-14.3 2.333-4.133 5.533-7.333 9.6-9.6 4.133-2.267 8.8-3.4 14-3.4 3.467 0 6.633.6 9.5 1.8a20.894 20.894 0 017.6 5.3v-6.5h12.5zm-28.2 43.4c4.6 0 8.4-1.533 11.4-4.6 3-3.067 4.5-7.1 4.5-12.1s-1.5-9.033-4.5-12.1-6.8-4.6-11.4-4.6c-4.6 0-8.4 1.533-11.4 4.6-2.933 3.067-4.4 7.1-4.4 12.1s1.467 9.033 4.4 12.1c3 3.067 6.8 4.6 11.4 4.6zm71.155-44c5.533 0 10.366 1.133 14.5 3.4 4.2 2.267 7.433 5.467 9.7 9.6 2.333 4.133 3.5 8.933 3.5 14.4 0 5.4-1.1 10.167-3.3 14.3-2.2 4.133-5.3 7.333-9.3 9.6-3.934 2.267-8.5 3.4-13.7 3.4-7.4 0-13.2-2.367-17.4-7.1v25.8h-12.6v-45.9c0-5.4 1.2-10.167 3.6-14.3 2.4-4.2 5.733-7.433 10-9.7 4.333-2.333 9.333-3.5 15-3.5zm-.5 44.1c4.666 0 8.466-1.533 11.4-4.6 2.933-3.133 4.4-7.167 4.4-12.1s-1.467-8.967-4.4-12.1c-2.934-3.133-6.734-4.7-11.4-4.7-4.734 0-8.534 1.533-11.4 4.6-2.867 3.067-4.3 7.1-4.3 12.1s1.433 9.067 4.3 12.2c2.933 3.067 6.733 4.6 11.4 4.6zm93.201 9.9v-35.4l-18 29.8h-5.4l-17.7-29.9V373h-11.4v-53.4h13.1l19 33.4 19.9-33.4h11.7l.1 53.4h-11.3zm51.867.7c-5.4 0-10.267-1.167-14.6-3.5-4.334-2.333-7.734-5.567-10.2-9.7-2.4-4.2-3.6-8.933-3.6-14.2 0-5.267 1.2-9.967 3.6-14.1 2.466-4.133 5.866-7.367 10.2-9.7 4.333-2.333 9.2-3.5 14.6-3.5 5.466 0 10.366 1.167 14.7 3.5 4.333 2.333 7.7 5.567 10.1 9.7 2.466 4.133 3.7 8.833 3.7 14.1 0 5.267-1.234 10-3.7 14.2-2.4 4.133-5.767 7.367-10.1 9.7-4.334 2.333-9.234 3.5-14.7 3.5zm0-10.7c4.6 0 8.4-1.533 11.4-4.6 3-3.067 4.5-7.1 4.5-12.1s-1.5-9.033-4.5-12.1-6.8-4.6-11.4-4.6c-4.6 0-8.4 1.533-11.4 4.6-2.934 3.067-4.4 7.1-4.4 12.1s1.466 9.033 4.4 12.1c3 3.067 6.8 4.6 11.4 4.6zm40.848-43.4h12.5v21.7h26.9v-21.7h12.5V373h-12.5v-21.1h-26.9V373h-12.5v-53.4zm68.652 0h12.5V373h-12.5v-53.4zm6.3-8.8c-2.266 0-4.166-.7-5.7-2.1-1.533-1.467-2.3-3.267-2.3-5.4 0-2.133.767-3.9 2.3-5.3 1.534-1.467 3.434-2.2 5.7-2.2 2.267 0 4.167.7 5.7 2.1 1.534 1.333 2.3 3.033 2.3 5.1 0 2.2-.766 4.067-2.3 5.6-1.466 1.467-3.366 2.2-5.7 2.2zm68.195 8.8V373h-11.2v-16.1h-14.1l-10.9 16.1h-13.4l12.6-17.8c-3.867-1.333-6.833-3.367-8.9-6.1-2-2.8-3-6.233-3-10.3 0-6.133 2.167-10.867 6.5-14.2 4.333-3.333 10.3-5 17.9-5h24.5zm-24.1 10.5c-8.067 0-12.1 3.033-12.1 9.1 0 6 3.9 9 11.7 9h13.3v-18.1h-12.9zM89.27 447.68h-.7c-.28.047-.537-.14-.77-.56-.187-.233-.303-.583-.35-1.05 0-.467.117-1.307.35-2.52.233-.793.42-1.587.56-2.38.14-.747.21-1.307.21-1.68 0-.187.047-.56.14-1.12.14-.513.21-.887.21-1.12.233-.373.42-.887.56-1.54.14-.653.21-1.237.21-1.75 0-.56.28-1.073.84-1.54 0-.373.07-.84.21-1.4.187-.56.28-.933.28-1.12.14-.653.443-1.797.91-3.43.513-1.68 1.12-3.57 1.82-5.67.747-2.1 1.47-4.153 2.17-6.16.7-2.007 1.33-3.71 1.89-5.11.56-1.307.933-2.427 1.12-3.36.233-.98.35-1.703.35-2.17 0-.187.047-.327.14-.42.093-.14.303-.397.63-.77.467-.467.863-.607 1.19-.42.373.187.817.467 1.33.84.373.607.63 1.12.77 1.54.187.42.187 1.143 0 2.17 0 .7-.117 1.307-.35 1.82-.233.513-.443.91-.63 1.19-.187.233-.233.327-.14.28 1.913-.887 3.593-1.353 5.04-1.4 1.493-.093 2.73.163 3.71.77a5.413 5.413 0 012.31 2.38c.513 1.027.77 2.217.77 3.57 0 .56-.117 1.237-.35 2.03a10.559 10.559 0 01-.91 2.1c-.327.607-.63 1.05-.91 1.33-.187 0-.373.163-.56.49-.187.28-.373.607-.56.98-.373.467-.98 1.003-1.82 1.61a15.788 15.788 0 01-2.38 1.4c-.793.327-1.377.42-1.75.28l-.21.07c-.093 0-.14.117-.14.35 0 .093-.373.303-1.12.63-.747.28-1.61.56-2.59.84-.98.233-1.843.35-2.59.35-.98 0-1.68-.187-2.1-.56-.093.093-.21.233-.35.42a1.13 1.13 0 00-.14.49c0 .28-.117.817-.35 1.61-.187.747-.42 1.47-.7 2.17-.28.7-.537 1.05-.77 1.05l-.14.21c-.093.14-.047.327.14.56l-.07.77c0 .56-.117 1.027-.35 1.4 0 .373-.07.933-.21 1.68-.14.747-.303 1.307-.49 1.68 0 .56-.093 1.097-.28 1.61-.14.56-.303.84-.49.84-.187.047-.303.327-.35.84-.047.56-.07.957-.07 1.19-.047 1.167-.28 2.077-.7 2.73-.42.653-.91.98-1.47.98zm8.47-23.38c.373 0 1.143-.163 2.31-.49a39.922 39.922 0 003.57-1.19c1.26-.513 2.193-1.027 2.8-1.54 1.213-1.073 2.147-2.287 2.8-3.64.7-1.4.653-2.73-.14-3.99-.373-.653-1.05-.91-2.03-.77-.98.093-2.053.467-3.22 1.12a16.277 16.277 0 00-3.29 2.45c-.56.607-1.073 1.353-1.54 2.24a22.169 22.169 0 00-1.19 2.66c-.28.887-.443 1.633-.49 2.24-.047.607.093.91.42.91zm25.545 6.65c-.607 0-1.097-.117-1.47-.35a25.04 25.04 0 01-1.26-.98c-.887-.933-1.517-1.82-1.89-2.66-.373-.887-.49-1.727-.35-2.52.14-.373.187-.723.14-1.05v-.56c-.233-.233-.303-.373-.21-.42.093-.093.187-.233.28-.42.28 0 .373-.257.28-.77-.093-.373.093-1.19.56-2.45.467-1.26 1.05-2.45 1.75-3.57.28-.467.7-1.073 1.26-1.82a28.415 28.415 0 011.82-2.31c.7-.793 1.33-1.423 1.89-1.89 1.167-.98 2.193-1.703 3.08-2.17a11.67 11.67 0 012.87-1.05c1.027-.233 1.727-.35 2.1-.35.42 0 .98.373 1.68 1.12 1.073.467 1.843 1.027 2.31 1.68.513.653.84 1.61.98 2.87.14 1.4.023 3.01-.35 4.83-.327 1.773-1.423 3.99-3.29 6.65-1.167 1.68-2.24 2.94-3.22 3.78-.98.793-2.147 1.587-3.5 2.38-.98.653-1.867 1.143-2.66 1.47-.793.28-1.727.467-2.8.56zm6.72-7.42c1.12-1.26 2.007-2.45 2.66-3.57.7-1.12 1.353-2.543 1.96-4.27.187-.513.303-1.143.35-1.89.047-.793.023-1.517-.07-2.17-.047-.7-.21-1.097-.49-1.19-.56-.327-1.237-.42-2.03-.28-.793.093-1.657.537-2.59 1.33-1.447 1.213-2.707 2.73-3.78 4.55-1.073 1.773-2.123 3.803-3.15 6.09-.7 1.68-.863 3.033-.49 4.06.42.98 1.283 1.33 2.59 1.05 1.353-.327 3.033-1.563 5.04-3.71zm13.268 3.15c-.047-.233-.094-.7-.14-1.4-.047-.747-.187-1.213-.42-1.4.14-1.073.256-2.053.35-2.94.093-.887.28-1.75.56-2.59.14-.467.373-1.073.7-1.82.373-.747.77-1.47 1.19-2.17.42-.747.793-1.26 1.12-1.54.326-.28.606-.607.84-.98.28-.373.583-.653.91-.84.28-.233.443-.49.49-.77.093-.28.28-.49.56-.63.7-.467 1.26-.887 1.68-1.26.42-.373.863-.7 1.33-.98.513-.28 1.19-.537 2.03-.77.933-.28 1.61-.467 2.03-.56a3.32 3.32 0 011.33-.14c.42.047 1.05.187 1.89.42 0-.28-.024-.607-.07-.98a11.97 11.97 0 01-.07-1.33 5.127 5.127 0 00-.07-1.89c-.094-.653-.187-1.12-.28-1.4-.28-.327-.444-.84-.49-1.54-.047-.747-.257-1.33-.63-1.75.14-.887-.187-1.727-.98-2.52a7.726 7.726 0 00-2.73-1.96c-1.074-.513-2.077-.7-3.01-.56a22.15 22.15 0 00-1.61.21 3.301 3.301 0 00-1.54.7c-.607.047-1.097.07-1.47.07-.374 0-.724-.117-1.05-.35-.514-.747-.864-1.283-1.05-1.61-.14-.327-.117-.583.07-.77.186-.233.513-.443.98-.63.513-.233 1.143-.607 1.89-1.12.513.187.886.163 1.12-.07.233-.233.606-.257 1.12-.07.373-.233.98-.303 1.82-.21.84.093 1.353.187 1.54.28.14.093.28.163.42.21.14 0 .28.023.42.07 1.633.327 3.056.98 4.27 1.96 1.26.98 2.263 2.24 3.01 3.78l.84 1.82c.28.607.56 1.19.84 1.75.093.28.186.863.28 1.75.14.84.256 1.657.35 2.45.14.747.21 1.19.21 1.33.093.467.14.91.14 1.33 0 .42-.047.863-.14 1.33-.56 3.687-1.4 7.07-2.52 10.15s-2.637 6.207-4.55 9.38c-.374.607-.887 1.213-1.54 1.82a55.515 55.515 0 01-1.89 1.68 6.828 6.828 0 01-2.45 1.4c-.887.233-1.867.373-2.94.42a420.339 420.339 0 00-2.87-2.24c-.607-.467-1.004-.863-1.19-1.19a12.25 12.25 0 01-.63-1.33zm5.39 1.33a1.81 1.81 0 01.91-.42c.373-.093.653-.35.84-.77.606-.467 1.283-1.213 2.03-2.24a33.947 33.947 0 002.24-3.29c.7-1.213 1.236-2.263 1.61-3.15.186-.513.35-1.003.49-1.47.186-.513.42-.98.7-1.4.466-.887.84-1.937 1.12-3.15.28-1.26.256-2.217-.07-2.87-2.38.793-4.34 1.867-5.88 3.22-1.54 1.307-2.94 3.173-4.2 5.6-.14.98-.42 1.913-.84 2.8a8.68 8.68 0 00-.7 2.73c-.234.467-.35.98-.35 1.54.046.513.163 1.12.35 1.82.606.467.933.723.98.77.093 0 .35.093.77.28zm36.355 3.15c-1.54-.56-2.73-1.61-3.57-3.15-.84-1.587-1.377-3.127-1.61-4.62-.047 0-.187.093-.42.28-.187.14-.42.373-.7.7l-2.45 2.45a26.06 26.06 0 01-3.08 2.52c-1.027.7-2.007 1.003-2.94.91a48.03 48.03 0 01-1.19-.77l-1.12-.98a5.22 5.22 0 01-.49-.56 8.466 8.466 0 01-.28-.63c-.513-1.4-.793-2.637-.84-3.71-.047-1.12.07-2.217.35-3.29.327-1.12.7-2.357 1.12-3.71.047-.14.21-.723.49-1.75.327-1.027.7-2.193 1.12-3.5.42-1.307.817-2.473 1.19-3.5.42-1.027.723-1.633.91-1.82h.42c.187-.047.35-.07.49-.07.467 0 .817.163 1.05.49.187.28.42.49.7.63.327.14.56.327.7.56.233.467.07 1.47-.49 3.01a183.357 183.357 0 00-1.82 5.11 51.9 51.9 0 00-1.54 5.25c-.42 1.727-.443 3.173-.07 4.34.327 0 .77-.28 1.33-.84.607-.607 1.073-1.027 1.4-1.26.467-.28 1.073-.817 1.82-1.61.793-.84 1.563-1.68 2.31-2.52.747-.887 1.26-1.563 1.54-2.03.187-.28.467-.793.84-1.54a66.37 66.37 0 001.12-2.52c.42-.933.747-1.797.98-2.59.28-.793.397-1.353.35-1.68-.047-.467 0-.817.14-1.05.187-.28.467-.537.84-.77h.77c.28 0 .537.023.77.07.28.327.583.63.91.91.327.28.653.583.98.91.233.887.093 2.077-.42 3.57a120.401 120.401 0 00-1.54 4.83 25.416 25.416 0 00-.98 5.25c-.14 1.727.327 3.243 1.4 4.55.98-.42 1.727-.817 2.24-1.19.56-.42 1.097-.84 1.61-1.26.513-.467 1.167-.933 1.96-1.4.467.28.817.84 1.05 1.68.233.84.35 1.517.35 2.03l-.56.42a1.05 1.05 0 00-.35.42c-.28.607-.84 1.213-1.68 1.82a12.372 12.372 0 01-2.66 1.47c-.933.327-1.75.373-2.45.14zm15.143-.77c-.326-.093-.77-.187-1.33-.28a5.415 5.415 0 01-1.54-.49c-.42-.28-.63-.63-.63-1.05 0-.373.024-.7.07-.98a1.68 1.68 0 01.56-.84.528.528 0 00.07-.21c0-.047.024-.093.07-.14 0-.233-.046-.443-.14-.63-.093-.187-.093-.42 0-.7.187-.513.327-.933.42-1.26.14-.373.21-.84.21-1.4v-.28c0-.14.024-.257.07-.35.374-1.027.677-2.077.91-3.15.234-1.073.584-2.1 1.05-3.08.56-1.213 1.284-2.8 2.17-4.76a85.986 85.986 0 002.24-5.53c.187-.513.397-.84.63-.98.28-.187.584-.257.91-.21.56.047 1.12.373 1.68.98.56.56.98 1.05 1.26 1.47-.466.887-1.026 1.937-1.68 3.15a251.94 251.94 0 00-1.75 3.43c-.513 1.073-.886 1.96-1.12 2.66.654.047 1.424.047 2.31 0a13.389 13.389 0 012.73 0c1.027.093 1.937.093 2.73 0 .794-.093 1.68-.21 2.66-.35.234-.7.467-1.493.7-2.38.28-.887.56-1.797.84-2.73.327-.933.724-1.797 1.19-2.59.467-.793 1.05-1.4 1.75-1.82.374-.093.654-.093.84 0 .187.047.444.187.77.42.607.467 1.05.84 1.33 1.12.327.233.444.513.35.84-.093.327-.396.863-.91 1.61-.326.513-.56 1.12-.7 1.82-.14.653-.396 1.213-.77 1.68-.093.093-.28.513-.56 1.26s-.606 1.657-.98 2.73l-1.12 3.22c-.373 1.073-.7 2.007-.98 2.8-.233.793-.35 1.26-.35 1.4-.046.607-.14 1.237-.28 1.89a8.384 8.384 0 00-.21 1.89c0 .373-.116.653-.35.84-.186.14-.443.21-.77.21-.466 0-.98-.117-1.54-.35-.56-.233-.98-.443-1.26-.63-.186-.14-.35-.373-.49-.7a11.363 11.363 0 01-.21-.84c.28-1.167.607-2.263.98-3.29.42-1.073.794-2.17 1.12-3.29.094-.187.14-.373.14-.56 0-.187-.046-.373-.14-.56a19.679 19.679 0 00-4.69-.14c-1.586.14-3.15.257-4.69.35-.233.233-.513.793-.84 1.68a36.49 36.49 0 00-.77 2.66c-.233.887-.42 1.563-.56 2.03.047.327 0 .793-.14 1.4-.14.607-.326 1.213-.56 1.82-.233.56-.466.957-.7 1.19zm46.205-23.24c.653-.373 1.33-.49 2.03-.35.7.093 1.237.397 1.61.91.42.467.49 1.073.21 1.82.093-.28-.023-.093-.35.56-.28.607-.653 1.4-1.12 2.38-.42.98-.817 1.913-1.19 2.8-.327.84-.537 1.33-.63 1.47v.21c.747 0 1.19.233 1.33.7.187.42.257.91.21 1.47-.56.093-.957.257-1.19.49-.233.187-.537.303-.91.35-.14 0-.303.07-.49.21a.88.88 0 00-.35.49c-.047.14-.187.7-.42 1.68-.187.933-.42 1.96-.7 3.08-.233 1.073-.443 1.89-.63 2.45a1.68 1.68 0 01-.56.91c-.28.187-.467.303-.56.35-.933-.373-1.563-.607-1.89-.7-.28-.14-.56-.327-.84-.56a3.406 3.406 0 010-.98c.047-.42.163-.91.35-1.47.233-.7.42-1.353.56-1.96.187-.653.373-1.563.56-2.73-.187-.093-.583-.093-1.19 0-.56.047-1.167.117-1.82.21-.653.093-1.213.187-1.68.28-.42.093-.607.117-.56.07-.233.093-.677.163-1.33.21a26.34 26.34 0 01-1.89-.07c-.607-.093-1.05-.187-1.33-.28l-.42.21c-.047.467-.257 1.167-.63 2.1-.373.887-.56 1.727-.56 2.52-.047.607-.14 1.213-.28 1.82a12.34 12.34 0 00-.28 1.89c-.047 1.027-.327 1.657-.84 1.89-.467.233-1.19.07-2.17-.49a6.324 6.324 0 01-.7-.49l-.63-.63 1.12-5.39c.187-.653.35-1.26.49-1.82.14-.607.303-1.19.49-1.75a63.168 63.168 0 001.05-3.15 25.228 25.228 0 011.26-3.01l.21-.7c.187-.513.397-1.073.63-1.68.233-.653.42-1.167.56-1.54.14-.373.163-.443.07-.21.14-.28.35-.817.63-1.61.28-.84.537-1.633.77-2.38.28-.793.42-1.213.42-1.26.093-.28.233-.467.42-.56.187-.14.42-.21.7-.21.793-.047 1.447.14 1.96.56.513.373.793.84.84 1.4a4.68 4.68 0 00-.07.77c0 .233-.047.42-.14.56l-3.64 8.89v.56c.467.28 1.143.327 2.03.14.933-.233 1.633-.35 2.1-.35.233-.047.77-.093 1.61-.14.887-.047 1.727-.07 2.52-.07.84 0 1.283.023 1.33.07.513-1.4.98-2.707 1.4-3.92.42-1.26 1.003-2.543 1.75-3.85.047-.093.14-.397.28-.91.187-.513.35-.933.49-1.26zm12.328 22.54c-.56.093-1.167 0-1.82-.28a5.54 5.54 0 01-1.75-1.19c-.467-.513-.77-1.05-.91-1.61-.187-.98-.07-2.193.35-3.64.466-1.493 1.12-3.057 1.96-4.69a45.709 45.709 0 012.94-4.83c1.12-1.54 2.263-2.87 3.43-3.99 1.213-1.167 2.333-1.96 3.36-2.38.513-.327.91-.537 1.19-.63.326-.14.653-.163.98-.07.373.093.91.327 1.61.7.653.187 1.143.397 1.47.63.326.233.746.7 1.26 1.4.373.7.653 1.4.84 2.1.186.7.35 1.493.49 2.38.373 1.167.513 1.937.42 2.31-.094.327-.234.583-.42.77-.374.467-.467.7-.28.7l-.07.28c0 .14-.094.373-.28.7a23.04 23.04 0 00-.77 3.22c-.14 1.073-.117 1.96.07 2.66.373 1.027 1.05 1.633 2.03 1.82.98.187 1.983-.233 3.01-1.26.513-.373 1.003-.7 1.47-.98.466-.327.7-.303.7.07l.21.21c.14.093.303.14.49.14.233 0 .373.093.42.28.093.187.093.443 0 .77-.047.28-.187.607-.42.98-.7.7-1.05 1.167-1.05 1.4l-.28.28c-.14.14-.397.373-.77.7-.84.513-1.914.77-3.22.77-1.26 0-2.24-.257-2.94-.77-.7-.513-1.354-1.213-1.96-2.1-.56-.887-.934-1.657-1.12-2.31l-.35-.7-2.03 1.33a17.463 17.463 0 01-1.68 1.47c-.56.467-.934.793-1.12.98-.14.187-.304.35-.49.49a.673.673 0 01-.49.21h-.7c0 .187-.234.42-.7.7-.42.28-.934.513-1.54.7-.56.187-1.074.28-1.54.28zm-.7-3.78c.28 0 .77-.21 1.47-.63a72.237 72.237 0 002.45-1.61 22.326 22.326 0 002.45-1.82c.746-.607 1.26-1.073 1.54-1.4l.91-.91c.42-.467.793-.863 1.12-1.19 1.073-1.213 1.82-2.543 2.24-3.99.42-1.493.373-2.66-.14-3.5-.187-.513-.42-.793-.7-.84-.28-.047-.864.117-1.75.49-.56.327-1.26.957-2.1 1.89a55.416 55.416 0 00-2.59 3.15 50.194 50.194 0 00-2.52 3.64 34.793 34.793 0 00-1.96 3.5c-.514 1.073-.77 1.913-.77 2.52 0 .187.046.35.14.49l.21.21zm46.434 4.06c-.794-.233-1.54-.653-2.24-1.26-.654-.607-1.05-1.307-1.19-2.1a2.232 2.232 0 00-.28-.84 1.951 1.951 0 01-.07-.91c.233-.933.49-1.843.77-2.73.28-.933.56-1.843.84-2.73.326-.933.676-1.843 1.05-2.73.42-.887.863-1.75 1.33-2.59.046-.093.093-.21.14-.35a2.56 2.56 0 01.14-.35c.233-.84.513-1.633.84-2.38.326-.793.723-1.587 1.19-2.38.233-.373.466-.933.7-1.68.233-.747.443-1.213.63-1.4.42-.513.84-.7 1.26-.56.42.14.816.467 1.19.98.373.467.676.98.91 1.54.28.56.466 1.003.56 1.33-.7.933-1.424 2.123-2.17 3.57-.7 1.447-1.4 2.987-2.1 4.62a67.215 67.215 0 00-1.89 4.76c-.56 1.54-.98 2.893-1.26 4.06.373.373.956.56 1.75.56.793-.047 1.423-.163 1.89-.35a23.057 23.057 0 002.73-.35c1.073-.233 1.983-.303 2.73-.21.186-.373.233-.747.14-1.12-.047-.42.023-.793.21-1.12.42-.653.746-1.283.98-1.89.233-.607.443-1.283.63-2.03.093-.327.28-.957.56-1.89.28-.933.583-1.96.91-3.08l.98-2.94c.326-.887.56-1.423.7-1.61.186-.14.373-.257.56-.35.233-.093.443-.163.63-.21.56.233.91.42 1.05.56.14.14.256.327.35.56.14.187.373.537.7 1.05 0 .327.023.7.07 1.12.046.373.023.747-.07 1.12-.094.047-.257.373-.49.98-.234.607-.49 1.307-.77 2.1a56.712 56.712 0 01-.7 2.1c-.187.607-.28.98-.28 1.12a8.13 8.13 0 00-.98 2.24 6.91 6.91 0 01-.91 2.17.774.774 0 00-.07.35.63.63 0 01-.07.28c.606-.093 1.19-.187 1.75-.28.606-.14 1.19-.257 1.75-.35a7.429 7.429 0 011.75-.07c.466-.373.84-.747 1.12-1.12.28-.42.42-.933.42-1.54.093-.14.303-.607.63-1.4.326-.793.676-1.68 1.05-2.66.373-1.027.7-1.937.98-2.73.28-.793.42-1.26.42-1.4.42-.56.7-1.167.84-1.82.186-.7.373-1.377.56-2.03.233-.093.49-.187.77-.28.28-.14.513-.28.7-.42 1.073.513 1.913 1.237 2.52 2.17.046.28.07.583.07.91 0 .28.023.56.07.84-.374.653-.7 1.33-.98 2.03-.28.653-.537 1.377-.77 2.17-.234.887-.584 1.983-1.05 3.29-.42 1.26-.887 2.52-1.4 3.78a48.127 48.127 0 01-1.47 3.29c-.047.14-.117.28-.21.42-.047.14-.117.28-.21.42-.094.14-.21.303-.35.49-.14.14-.327.233-.56.28-.467.093-.91.023-1.33-.21-.374-.28-.747-.537-1.12-.77-.14-.047-.397.023-.77.21-.374.14-.63.257-.77.35-.747-.093-1.237-.093-1.47 0-.187.093-.56.14-1.12.14-.934 0-2.124.093-3.57.28-1.4.187-2.847.397-4.34.63-1.587.187-3.08.35-4.48.49-1.354.093-2.357.047-3.01-.14zm33.677.49c-.466-.327-.816-.63-1.05-.91-.233-.28-.326-.677-.28-1.19.094-.7.234-1.423.42-2.17.187-.793.42-1.563.7-2.31.14-.84.304-1.68.49-2.52a7.951 7.951 0 011.12-2.38c.794-2.24 1.517-4.41 2.17-6.51.7-2.147 1.634-4.667 2.8-7.56.234-.513.444-.887.63-1.12.234-.28.444-.56.63-.84.047-.187.187-.28.42-.28.28-.047.584 0 .91.14.327.093.584.257.77.49.187-.047.444.257.77.91.374.653.514 1.167.42 1.54 0 .187-.046.443-.14.77-.093.327-.233.63-.42.91-.186.187-.373.467-.56.84-.186.327-.466.77-.84 1.33a332.933 332.933 0 01-1.19 3.29c-.326.887-.723 1.89-1.19 3.01-.326.467-.583 1.097-.77 1.89a159.44 159.44 0 01-.56 2.31c-.326.84-.63 1.61-.91 2.31-.233.7-.35 1.143-.35 1.33a24.939 24.939 0 00-.77 3.08c-.186.98-.49 1.843-.91 2.59-.046.7-.256 1.167-.63 1.4-.326.233-.886.117-1.68-.35zm16.73 1.12c-.746-.093-1.306-.233-1.68-.42-.373-.233-1.073-.723-2.1-1.47-.56-.56-1.33-1.423-2.31-2.59a85.892 85.892 0 01-2.94-3.71 277.431 277.431 0 01-2.45-3.43l2.87-3.85a15.86 15.86 0 011.47 2.1c.374.653.677 1.097.91 1.33a117.483 117.483 0 012.52 3.85c.654.98 1.237 1.773 1.75 2.38.514.607 1.05 1.143 1.61 1.61a20.79 20.79 0 002.24 1.47c.14.093.28.233.42.42.14.187.187.467.14.84-.186.513-.396.84-.63.98-.186.093-.793.257-1.82.49zm-11.69-12.39c-.28-.793-.186-1.587.28-2.38.514-.84 1.074-1.423 1.68-1.75.187-.327.374-.537.56-.63.234-.14.374-.303.42-.49.094-.187.327-.443.7-.77.42-.327.794-.63 1.12-.91a59.039 59.039 0 002.52-1.68c.98-.7 1.914-1.4 2.8-2.1.887-.7 1.634-1.307 2.24-1.82.654-.513 1.05-.84 1.19-.98a.897.897 0 01.56-.35c.28-.093.63-.047 1.05.14.56.14.934.373 1.12.7.187.28.28.84.28 1.68.14.513-.07 1.073-.63 1.68-.513.56-1.306 1.19-2.38 1.89-.373.233-.886.583-1.54 1.05-.606.467-1.143.91-1.61 1.33-.326.187-.816.513-1.47.98-.606.42-1.143.84-1.61 1.26-.373.233-.863.653-1.47 1.26-.606.56-1.213.98-1.82 1.26-1.493 1.4-2.473 2.147-2.94 2.24-.466.093-.816-.443-1.05-1.61zm24.867 11.76c-.607 0-1.097-.117-1.47-.35a25.04 25.04 0 01-1.26-.98c-.887-.933-1.517-1.82-1.89-2.66-.374-.887-.49-1.727-.35-2.52.14-.373.186-.723.14-1.05v-.56c-.234-.233-.304-.373-.21-.42.093-.093.186-.233.28-.42.28 0 .373-.257.28-.77-.094-.373.093-1.19.56-2.45.466-1.26 1.05-2.45 1.75-3.57.28-.467.7-1.073 1.26-1.82a28.197 28.197 0 011.82-2.31c.7-.793 1.33-1.423 1.89-1.89 1.166-.98 2.193-1.703 3.08-2.17a11.656 11.656 0 012.87-1.05c1.026-.233 1.726-.35 2.1-.35.42 0 .98.373 1.68 1.12 1.073.467 1.843 1.027 2.31 1.68.513.653.84 1.61.98 2.87.14 1.4.023 3.01-.35 4.83-.327 1.773-1.424 3.99-3.29 6.65-1.167 1.68-2.24 2.94-3.22 3.78-.98.793-2.147 1.587-3.5 2.38-.98.653-1.867 1.143-2.66 1.47-.794.28-1.727.467-2.8.56zm6.72-7.42c1.12-1.26 2.006-2.45 2.66-3.57.7-1.12 1.353-2.543 1.96-4.27.186-.513.303-1.143.35-1.89.046-.793.023-1.517-.07-2.17-.047-.7-.21-1.097-.49-1.19-.56-.327-1.237-.42-2.03-.28-.794.093-1.657.537-2.59 1.33-1.447 1.213-2.707 2.73-3.78 4.55-1.074 1.773-2.124 3.803-3.15 6.09-.7 1.68-.864 3.033-.49 4.06.42.98 1.283 1.33 2.59 1.05 1.353-.327 3.033-1.563 5.04-3.71zm8.75 8.19c-.186-.093-.443-.28-.77-.56-.28-.28-.536-.56-.77-.84l-.35-.35a.787.787 0 00-.28-.28c0-.327.07-.56.21-.7.187-.14.374-.303.56-.49.187-.28.49-.42.91-.42.42 0 .747-.117.98-.35.84-.607 1.704-1.237 2.59-1.89a9.533 9.533 0 002.24-2.31 55.665 55.665 0 001.96-3.01 257.104 257.104 0 001.89-3.15c.187-.327.49-.91.91-1.75.42-.84.817-1.657 1.19-2.45.42-.84.654-1.423.7-1.75-.42-.14-.816-.257-1.19-.35a8.101 8.101 0 00-.98-.35c-.42-.653-.653-1.027-.7-1.12-.046-.14-.07-.583-.07-1.33 0-.56.304-.91.91-1.05 1.354-.327 2.544-.537 3.57-.63a17.76 17.76 0 003.15-.56c.654-.187 1.447-.257 2.38-.21a8.684 8.684 0 012.8.63c.42.187.77.42 1.05.7.28.28.537.607.77.98.607.84.91 1.563.91 2.17.047.607.024 1.19-.07 1.75-.093.56-.023 1.19.21 1.89a51.298 51.298 0 01-.98 3.36c-.326.933-.63 1.82-.91 2.66-.28.793-.536 1.54-.77 2.24-.233.7-.42 1.4-.56 2.1-.186.747-.42 1.493-.7 2.24-.28.747-.49 1.517-.63 2.31-.093.607-.373 1.05-.84 1.33-.42.28-.886.537-1.4.77-.186.047-.513 0-.98-.14a4.723 4.723 0 01-1.19-.77c-.14-.513-.186-.98-.14-1.4.047-.42.14-.84.28-1.26.14-.373.397-1.213.77-2.52l1.26-4.41c.467-1.633.91-3.15 1.33-4.55.42-1.4.7-2.38.84-2.94.234-.747.304-1.307.21-1.68a6.82 6.82 0 00-.21-1.05c-.98-.373-1.656-.49-2.03-.35a13.47 13.47 0 01-1.26.28c-.233.187-.42.397-.56.63-.14.233-.233.467-.28.7-.513 1.353-.956 2.427-1.33 3.22a32.244 32.244 0 01-.98 2.17c-.326.607-.7 1.283-1.12 2.03-.373.747-.863 1.773-1.47 3.08-.373.84-.84 1.61-1.4 2.31-.513.7-.98 1.447-1.4 2.24l-.77.98c.047 0-.14.187-.56.56l-1.26 1.12-.56.56-2.17 1.68c-.233.187-.63.28-1.19.28h-1.75zm33.706-1.75c-.373.093-.863.14-1.47.14a13.78 13.78 0 01-1.61-.21c-.42-.14-.63-.28-.63-.42 0-.233-.116-.35-.35-.35l-.35-.28c-.186-.187-.49-.373-.91-.56a3.812 3.812 0 01-.63-2.1c0-.793.21-2.03.63-3.71.14-1.167.584-2.52 1.33-4.06a40.997 40.997 0 012.87-4.83 38.376 38.376 0 013.5-4.41c1.26-1.307 2.404-2.263 3.43-2.87a3.507 3.507 0 012.38-1.05 4.87 4.87 0 012.66.63c.467.233.934.607 1.4 1.12.467.513.91 1.073 1.33 1.68.42.607.77 1.213 1.05 1.82.14.513.21.98.21 1.4.047.373.047.84 0 1.4 0 .56-.07 1.4-.21 2.52-.233.84-.443 1.867-.63 3.08-.14 1.213-.21 2.263-.21 3.15-.093.887 0 1.517.28 1.89.327.373.794.397 1.4.07.56-.28 1.097-.397 1.61-.35.514 0 .91.14 1.19.42.327.28.49.7.49 1.26s-.28 1.143-.84 1.75c-.513.56-1.166 1.05-1.96 1.47-.746.373-1.47.56-2.17.56-.513 0-1.003-.303-1.47-.91-.466-.653-.886-1.423-1.26-2.31-.326-.933-.63-1.82-.91-2.66l-.42-1.61-3.01 2.87a33.224 33.224 0 01-1.82 1.82c-.56.513-.91.887-1.05 1.12-.233.42-.676.84-1.33 1.26-.606.42-1.446.84-2.52 1.26zm.21-4.13c.794-.467 1.704-1.143 2.73-2.03a45.698 45.698 0 003.01-3.01c.98-1.12 1.797-2.147 2.45-3.08.794-1.073 1.4-2.077 1.82-3.01.42-.933.724-1.82.91-2.66-.186-.513-.49-1.05-.91-1.61-.42-.607-.793-.933-1.12-.98-1.026 0-2.123.653-3.29 1.96a51.312 51.312 0 00-3.29 4.13c-.186.233-.443.607-.77 1.12a39.483 39.483 0 01-.98 1.47l-.56.84c-.14.187-.42.723-.84 1.61-.373.84-.746 1.703-1.12 2.59-.373.84-.56 1.4-.56 1.68s.024.583.07.91c.094.327.327.537.7.63.374.093.957-.093 1.75-.56z"/></g><defs><filter id="filter0_d_667_44" x="228.874" y="96.542" width="149.948" height="220.503" filterUnits="userSpaceOnUse" color-interpolation-filters="sRGB"><feFlood flood-opacity="0" result="BackgroundImageFix"/><feColorMatrix in="SourceAlpha" values="0 0 0 0 0 0 0 0 0 0 0 0 0 0 0 0 0 0 127 0" result="hardAlpha"/><feOffset dy="4"/><feGaussianBlur stdDeviation="2"/><feComposite in2="hardAlpha" operator="out"/><feColorMatrix values="0 0 0 0 0 0 0 0 0 0 0 0 0 0 0 0 0 0 0.25 0"/><feBlend in2="BackgroundImageFix" result="effect1_dropShadow_667_44"/><feBlend in="SourceGraphic" in2="effect1_dropShadow_667_44" result="shape"/></filter><filter id="filter1_d_667_44" x="228.874" y="96.542" width="149.948" height="220.453" filterUnits="userSpaceOnUse" color-interpolation-filters="sRGB"><feFlood flood-opacity="0" result="BackgroundImageFix"/><feColorMatrix in="SourceAlpha" values="0 0 0 0 0 0 0 0 0 0 0 0 0 0 0 0 0 0 127 0" result="hardAlpha"/><feOffset dy="4"/><feGaussianBlur stdDeviation="2"/><feComposite in2="hardAlpha" operator="out"/><feColorMatrix values="0 0 0 0 0 0 0 0 0 0 0 0 0 0 0 0 0 0 0.25 0"/><feBlend in2="BackgroundImageFix" result="effect1_dropShadow_667_44"/><feBlend in="SourceGraphic" in2="effect1_dropShadow_667_44" result="shape"/></filter><filter id="filter2_d_667_44" x="293.57" y="96.544" width="85.086" height="219.648" filterUnits="userSpaceOnUse" color-interpolation-filters="sRGB"><feFlood flood-opacity="0" result="BackgroundImageFix"/><feColorMatrix in="SourceAlpha" values="0 0 0 0 0 0 0 0 0 0 0 0 0 0 0 0 0 0 127 0" result="hardAlpha"/><feOffset dy="4"/><feGaussianBlur stdDeviation="2"/><feComposite in2="hardAlpha" operator="out"/><feColorMatrix values="0 0 0 0 0 0 0 0 0 0 0 0 0 0 0 0 0 0 0.25 0"/><feBlend in2="BackgroundImageFix" result="effect1_dropShadow_667_44"/><feBlend in="SourceGraphic" in2="effect1_dropShadow_667_44" result="shape"/></filter><filter id="filter3_d_667_44" x="268.417" y="204.056" width="67.025" height="112.989" filterUnits="userSpaceOnUse" color-interpolation-filters="sRGB"><feFlood flood-opacity="0" result="BackgroundImageFix"/><feColorMatrix in="SourceAlpha" values="0 0 0 0 0 0 0 0 0 0 0 0 0 0 0 0 0 0 127 0" result="hardAlpha"/><feOffset dy="4"/><feGaussianBlur stdDeviation="2"/><feComposite in2="hardAlpha" operator="out"/><feColorMatrix values="0 0 0 0 0 0 0 0 0 0 0 0 0 0 0 0 0 0 0.25 0"/><feBlend in2="BackgroundImageFix" result="effect1_dropShadow_667_44"/><feBlend in="SourceGraphic" in2="effect1_dropShadow_667_44" result="shape"/></filter><filter id="filter4_d_667_44" x="291.749" y="193.118" width="34.05" height="37.706" filterUnits="userSpaceOnUse" color-interpolation-filters="sRGB"><feFlood flood-opacity="0" result="BackgroundImageFix"/><feColorMatrix in="SourceAlpha" values="0 0 0 0 0 0 0 0 0 0 0 0 0 0 0 0 0 0 127 0" result="hardAlpha"/><feOffset dy="4"/><feGaussianBlur stdDeviation="2"/><feComposite in2="hardAlpha" operator="out"/><feColorMatrix values="0 0 0 0 0 0 0 0 0 0 0 0 0 0 0 0 0 0 0.25 0"/><feBlend in2="BackgroundImageFix" result="effect1_dropShadow_667_44"/><feBlend in="SourceGraphic" in2="effect1_dropShadow_667_44" result="shape"/></filter><filter id="filter5_d_667_44" x="129.871" y="11.724" width="88.558" height="101.811" filterUnits="userSpaceOnUse" color-interpolation-filters="sRGB"><feFlood flood-opacity="0" result="BackgroundImageFix"/><feColorMatrix in="SourceAlpha" values="0 0 0 0 0 0 0 0 0 0 0 0 0 0 0 0 0 0 127 0" result="hardAlpha"/><feOffset dy="4"/><feGaussianBlur stdDeviation="2"/><feComposite in2="hardAlpha" operator="out"/><feColorMatrix values="0 0 0 0 0 0 0 0 0 0 0 0 0 0 0 0 0 0 0.25 0"/><feBlend in2="BackgroundImageFix" result="effect1_dropShadow_667_44"/><feBlend in="SourceGraphic" in2="effect1_dropShadow_667_44" result="shape"/></filter><filter id="filter6_d_667_44" x="129.871" y="11.738" width="88.558" height="101.761" filterUnits="userSpaceOnUse" color-interpolation-filters="sRGB"><feFlood flood-opacity="0" result="BackgroundImageFix"/><feColorMatrix in="SourceAlpha" values="0 0 0 0 0 0 0 0 0 0 0 0 0 0 0 0 0 0 127 0" result="hardAlpha"/><feOffset dy="4"/><feGaussianBlur stdDeviation="2"/><feComposite in2="hardAlpha" operator="out"/><feColorMatrix values="0 0 0 0 0 0 0 0 0 0 0 0 0 0 0 0 0 0 0.25 0"/><feBlend in2="BackgroundImageFix" result="effect1_dropShadow_667_44"/><feBlend in="SourceGraphic" in2="effect1_dropShadow_667_44" result="shape"/></filter><filter id="filter7_d_667_44" x="129.95" y="11.724" width="62.743" height="101.375" filterUnits="userSpaceOnUse" color-interpolation-filters="sRGB"><feFlood flood-opacity="0" result="BackgroundImageFix"/><feColorMatrix in="SourceAlpha" values="0 0 0 0 0 0 0 0 0 0 0 0 0 0 0 0 0 0 127 0" result="hardAlpha"/><feOffset dy="4"/><feGaussianBlur stdDeviation="2"/><feComposite in2="hardAlpha" operator="out"/><feColorMatrix values="0 0 0 0 0 0 0 0 0 0 0 0 0 0 0 0 0 0 0.25 0"/><feBlend in2="BackgroundImageFix" result="effect1_dropShadow_667_44"/><feBlend in="SourceGraphic" in2="effect1_dropShadow_667_44" result="shape"/></filter><filter id="filter8_d_667_44" x="160.835" y="53.746" width="43.644" height="59.789" filterUnits="userSpaceOnUse" color-interpolation-filters="sRGB"><feFlood flood-opacity="0" result="BackgroundImageFix"/><feColorMatrix in="SourceAlpha" values="0 0 0 0 0 0 0 0 0 0 0 0 0 0 0 0 0 0 127 0" result="hardAlpha"/><feOffset dy="4"/><feGaussianBlur stdDeviation="2"/><feComposite in2="hardAlpha" operator="out"/><feColorMatrix values="0 0 0 0 0 0 0 0 0 0 0 0 0 0 0 0 0 0 0.25 0"/><feBlend in2="BackgroundImageFix" result="effect1_dropShadow_667_44"/><feBlend in="SourceGraphic" in2="effect1_dropShadow_667_44" result="shape"/></filter><filter id="filter9_d_667_44" x="164.105" y="51.797" width="21.294" height="21.794" filterUnits="userSpaceOnUse" color-interpolation-filters="sRGB"><feFlood flood-opacity="0" result="BackgroundImageFix"/><feColorMatrix in="SourceAlpha" values="0 0 0 0 0 0 0 0 0 0 0 0 0 0 0 0 0 0 127 0" result="hardAlpha"/><feOffset dy="4"/><feGaussianBlur stdDeviation="2"/><feComposite in2="hardAlpha" operator="out"/><feColorMatrix values="0 0 0 0 0 0 0 0 0 0 0 0 0 0 0 0 0 0 0.25 0"/><feBlend in2="BackgroundImageFix" result="effect1_dropShadow_667_44"/><feBlend in="SourceGraphic" in2="effect1_dropShadow_667_44" result="shape"/></filter><filter id="filter10_d_667_44" x="306.114" y="43.747" width="57.481" height="68.195" filterUnits="userSpaceOnUse" color-interpolation-filters="sRGB"><feFlood flood-opacity="0" result="BackgroundImageFix"/><feColorMatrix in="SourceAlpha" values="0 0 0 0 0 0 0 0 0 0 0 0 0 0 0 0 0 0 127 0" result="hardAlpha"/><feOffset dy="4"/><feGaussianBlur stdDeviation="2"/><feComposite in2="hardAlpha" operator="out"/><feColorMatrix values="0 0 0 0 0 0 0 0 0 0 0 0 0 0 0 0 0 0 0.25 0"/><feBlend in2="BackgroundImageFix" result="effect1_dropShadow_667_44"/><feBlend in="SourceGraphic" in2="effect1_dropShadow_667_44" result="shape"/></filter><filter id="filter11_d_667_44" x="306.114" y="43.754" width="57.481" height="68.188" filterUnits="userSpaceOnUse" color-interpolation-filters="sRGB"><feFlood flood-opacity="0" result="BackgroundImageFix"/><feColorMatrix in="SourceAlpha" values="0 0 0 0 0 0 0 0 0 0 0 0 0 0 0 0 0 0 127 0" result="hardAlpha"/><feOffset dy="4"/><feGaussianBlur stdDeviation="2"/><feComposite in2="hardAlpha" operator="out"/><feColorMatrix values="0 0 0 0 0 0 0 0 0 0 0 0 0 0 0 0 0 0 0.25 0"/><feBlend in2="BackgroundImageFix" result="effect1_dropShadow_667_44"/><feBlend in="SourceGraphic" in2="effect1_dropShadow_667_44" result="shape"/></filter><filter id="filter12_d_667_44" x="322.922" y="43.747" width="40.623" height="67.944" filterUnits="userSpaceOnUse" color-interpolation-filters="sRGB"><feFlood flood-opacity="0" result="BackgroundImageFix"/><feColorMatrix in="SourceAlpha" values="0 0 0 0 0 0 0 0 0 0 0 0 0 0 0 0 0 0 127 0" result="hardAlpha"/><feOffset dy="4"/><feGaussianBlur stdDeviation="2"/><feComposite in2="hardAlpha" operator="out"/><feColorMatrix values="0 0 0 0 0 0 0 0 0 0 0 0 0 0 0 0 0 0 0.25 0"/><feBlend in2="BackgroundImageFix" result="effect1_dropShadow_667_44"/><feBlend in="SourceGraphic" in2="effect1_dropShadow_667_44" result="shape"/></filter><filter id="filter13_d_667_44" x="315.426" y="71.378" width="29.721" height="40.56" filterUnits="userSpaceOnUse" color-interpolation-filters="sRGB"><feFlood flood-opacity="0" result="BackgroundImageFix"/><feColorMatrix in="SourceAlpha" values="0 0 0 0 0 0 0 0 0 0 0 0 0 0 0 0 0 0 127 0" result="hardAlpha"/><feOffset dy="4"/><feGaussianBlur stdDeviation="2"/><feComposite in2="hardAlpha" operator="out"/><feColorMatrix values="0 0 0 0 0 0 0 0 0 0 0 0 0 0 0 0 0 0 0.25 0"/><feBlend in2="BackgroundImageFix" result="effect1_dropShadow_667_44"/><feBlend in="SourceGraphic" in2="effect1_dropShadow_667_44" result="shape"/></filter><filter id="filter14_d_667_44" x="326.62" y="69.787" width="16.297" height="16.756" filterUnits="userSpaceOnUse" color-interpolation-filters="sRGB"><feFlood flood-opacity="0" result="BackgroundImageFix"/><feColorMatrix in="SourceAlpha" values="0 0 0 0 0 0 0 0 0 0 0 0 0 0 0 0 0 0 127 0" result="hardAlpha"/><feOffset dy="4"/><feGaussianBlur stdDeviation="2"/><feComposite in2="hardAlpha" operator="out"/><feColorMatrix values="0 0 0 0 0 0 0 0 0 0 0 0 0 0 0 0 0 0 0.25 0"/><feBlend in2="BackgroundImageFix" result="effect1_dropShadow_667_44"/><feBlend in="SourceGraphic" in2="effect1_dropShadow_667_44" result="shape"/></filter><filter id="filter15_d_667_44" x="216.217" y="8.66" width="88.276" height="144.685" filterUnits="userSpaceOnUse" color-interpolation-filters="sRGB"><feFlood flood-opacity="0" result="BackgroundImageFix"/><feColorMatrix in="SourceAlpha" values="0 0 0 0 0 0 0 0 0 0 0 0 0 0 0 0 0 0 127 0" result="hardAlpha"/><feOffset dy="4"/><feGaussianBlur stdDeviation="2"/><feComposite in2="hardAlpha" operator="out"/><feColorMatrix values="0 0 0 0 0 0 0 0 0 0 0 0 0 0 0 0 0 0 0.25 0"/><feBlend in2="BackgroundImageFix" result="effect1_dropShadow_667_44"/><feBlend in="SourceGraphic" in2="effect1_dropShadow_667_44" result="shape"/></filter><filter id="filter16_d_667_44" x="216.217" y="8.66" width="70.411" height="144.577" filterUnits="userSpaceOnUse" color-interpolation-filters="sRGB"><feFlood flood-opacity="0" result="BackgroundImageFix"/><feColorMatrix in="SourceAlpha" values="0 0 0 0 0 0 0 0 0 0 0 0 0 0 0 0 0 0 127 0" result="hardAlpha"/><feOffset dy="4"/><feGaussianBlur stdDeviation="2"/><feComposite in2="hardAlpha" operator="out"/><feColorMatrix values="0 0 0 0 0 0 0 0 0 0 0 0 0 0 0 0 0 0 0.25 0"/><feBlend in2="BackgroundImageFix" result="effect1_dropShadow_667_44"/><feBlend in="SourceGraphic" in2="effect1_dropShadow_667_44" result="shape"/></filter><filter id="filter17_d_667_44" x="251.879" y="8.686" width="52.615" height="142.312" filterUnits="userSpaceOnUse" color-interpolation-filters="sRGB"><feFlood flood-opacity="0" result="BackgroundImageFix"/><feColorMatrix in="SourceAlpha" values="0 0 0 0 0 0 0 0 0 0 0 0 0 0 0 0 0 0 127 0" result="hardAlpha"/><feOffset dy="4"/><feGaussianBlur stdDeviation="2"/><feComposite in2="hardAlpha" operator="out"/><feColorMatrix values="0 0 0 0 0 0 0 0 0 0 0 0 0 0 0 0 0 0 0.25 0"/><feBlend in2="BackgroundImageFix" result="effect1_dropShadow_667_44"/><feBlend in="SourceGraphic" in2="effect1_dropShadow_667_44" result="shape"/></filter><filter id="filter18_d_667_44" x="235.748" y="84.88" width="46.46" height="68.465" filterUnits="userSpaceOnUse" color-interpolation-filters="sRGB"><feFlood flood-opacity="0" result="BackgroundImageFix"/><feColorMatrix in="SourceAlpha" values="0 0 0 0 0 0 0 0 0 0 0 0 0 0 0 0 0 0 127 0" result="hardAlpha"/><feOffset dy="4"/><feGaussianBlur stdDeviation="2"/><feComposite in2="hardAlpha" operator="out"/><feColorMatrix values="0 0 0 0 0 0 0 0 0 0 0 0 0 0 0 0 0 0 0.25 0"/><feBlend in2="BackgroundImageFix" result="effect1_dropShadow_667_44"/><feBlend in="SourceGraphic" in2="effect1_dropShadow_667_44" result="shape"/></filter><filter id="filter19_d_667_44" x="249.618" y="73.936" width="22.58" height="26.37" filterUnits="userSpaceOnUse" color-interpolation-filters="sRGB"><feFlood flood-opacity="0" result="BackgroundImageFix"/><feColorMatrix in="SourceAlpha" values="0 0 0 0 0 0 0 0 0 0 0 0 0 0 0 0 0 0 127 0" result="hardAlpha"/><feOffset dy="4"/><feGaussianBlur stdDeviation="2"/><feComposite in2="hardAlpha" operator="out"/><feColorMatrix values="0 0 0 0 0 0 0 0 0 0 0 0 0 0 0 0 0 0 0.25 0"/><feBlend in2="BackgroundImageFix" result="effect1_dropShadow_667_44"/><feBlend in="SourceGraphic" in2="effect1_dropShadow_667_44" result="shape"/></filter><filter id="filter20_d_667_44" x="81" y="71.051" width="154.507" height="218.691" filterUnits="userSpaceOnUse" color-interpolation-filters="sRGB"><feFlood flood-opacity="0" result="BackgroundImageFix"/><feColorMatrix in="SourceAlpha" values="0 0 0 0 0 0 0 0 0 0 0 0 0 0 0 0 0 0 127 0" result="hardAlpha"/><feOffset dy="4"/><feGaussianBlur stdDeviation="2"/><feComposite in2="hardAlpha" operator="out"/><feColorMatrix values="0 0 0 0 0 0 0 0 0 0 0 0 0 0 0 0 0 0 0.25 0"/><feBlend in2="BackgroundImageFix" result="effect1_dropShadow_667_44"/><feBlend in="SourceGraphic" in2="effect1_dropShadow_667_44" result="shape"/></filter><filter id="filter21_d_667_44" x="81" y="71.053" width="154.507" height="218.688" filterUnits="userSpaceOnUse" color-interpolation-filters="sRGB"><feFlood flood-opacity="0" result="BackgroundImageFix"/><feColorMatrix in="SourceAlpha" values="0 0 0 0 0 0 0 0 0 0 0 0 0 0 0 0 0 0 127 0" result="hardAlpha"/><feOffset dy="4"/><feGaussianBlur stdDeviation="2"/><feComposite in2="hardAlpha" operator="out"/><feColorMatrix values="0 0 0 0 0 0 0 0 0 0 0 0 0 0 0 0 0 0 0.25 0"/><feBlend in2="BackgroundImageFix" result="effect1_dropShadow_667_44"/><feBlend in="SourceGraphic" in2="effect1_dropShadow_667_44" result="shape"/></filter><filter id="filter22_d_667_44" x="81.168" y="71.051" width="90.282" height="217.882" filterUnits="userSpaceOnUse" color-interpolation-filters="sRGB"><feFlood flood-opacity="0" result="BackgroundImageFix"/><feColorMatrix in="SourceAlpha" values="0 0 0 0 0 0 0 0 0 0 0 0 0 0 0 0 0 0 127 0" result="hardAlpha"/><feOffset dy="4"/><feGaussianBlur stdDeviation="2"/><feComposite in2="hardAlpha" operator="out"/><feColorMatrix values="0 0 0 0 0 0 0 0 0 0 0 0 0 0 0 0 0 0 0.25 0"/><feBlend in2="BackgroundImageFix" result="effect1_dropShadow_667_44"/><feBlend in="SourceGraphic" in2="effect1_dropShadow_667_44" result="shape"/></filter><filter id="filter23_d_667_44" x="127.447" y="176.28" width="69.536" height="113.437" filterUnits="userSpaceOnUse" color-interpolation-filters="sRGB"><feFlood flood-opacity="0" result="BackgroundImageFix"/><feColorMatrix in="SourceAlpha" values="0 0 0 0 0 0 0 0 0 0 0 0 0 0 0 0 0 0 127 0" result="hardAlpha"/><feOffset dy="4"/><feGaussianBlur stdDeviation="2"/><feComposite in2="hardAlpha" operator="out"/><feColorMatrix values="0 0 0 0 0 0 0 0 0 0 0 0 0 0 0 0 0 0 0.25 0"/><feBlend in2="BackgroundImageFix" result="effect1_dropShadow_667_44"/><feBlend in="SourceGraphic" in2="effect1_dropShadow_667_44" result="shape"/></filter><filter id="filter24_d_667_44" x="136.882" y="166.19" width="34.478" height="37.596" filterUnits="userSpaceOnUse" color-interpolation-filters="sRGB"><feFlood flood-opacity="0" result="BackgroundImageFix"/><feColorMatrix in="SourceAlpha" values="0 0 0 0 0 0 0 0 0 0 0 0 0 0 0 0 0 0 127 0" result="hardAlpha"/><feOffset dy="4"/><feGaussianBlur stdDeviation="2"/><feComposite in2="hardAlpha" operator="out"/><feColorMatrix values="0 0 0 0 0 0 0 0 0 0 0 0 0 0 0 0 0 0 0.25 0"/><feBlend in2="BackgroundImageFix" result="effect1_dropShadow_667_44"/><feBlend in="SourceGraphic" in2="effect1_dropShadow_667_44" result="shape"/></filter><filter id="filter25_d_667_44" x="5.9" y="295.8" width="474.061" height="159.95" filterUnits="userSpaceOnUse" color-interpolation-filters="sRGB"><feFlood flood-opacity="0" result="BackgroundImageFix"/><feColorMatrix in="SourceAlpha" values="0 0 0 0 0 0 0 0 0 0 0 0 0 0 0 0 0 0 127 0" result="hardAlpha"/><feOffset dy="4"/><feGaussianBlur stdDeviation="2"/><feComposite in2="hardAlpha" operator="out"/><feColorMatrix values="0 0 0 0 0 0 0 0 0 0 0 0 0 0 0 0 0 0 0.25 0"/><feBlend in2="BackgroundImageFix" result="effect1_dropShadow_667_44"/><feBlend in="SourceGraphic" in2="effect1_dropShadow_667_44" result="shape"/></filter><linearGradient id="paint0_linear_667_44" x1="302.827" y1="97.342" x2="305.185" y2="309.722" gradientUnits="userSpaceOnUse"><stop stop-color="#FFD40E"/><stop offset="1" stop-color="#F9EC88"/></linearGradient><linearGradient id="paint1_linear_667_44" x1="335" y1="96.985" x2="337.351" y2="308.758" gradientUnits="userSpaceOnUse"><stop stop-color="#F9EC88"/><stop offset="1" stop-color="#FFD40E"/></linearGradient><linearGradient id="paint2_linear_667_44" x1="167.978" y1="5.851" x2="185.342" y2="106.464" gradientUnits="userSpaceOnUse"><stop stop-color="#18A10A"/><stop offset="1" stop-color="#9DCE3F"/></linearGradient><linearGradient id="paint3_linear_667_44" x1="152.736" y1="8.482" x2="170.051" y2="108.806" gradientUnits="userSpaceOnUse"><stop stop-color="#9DCE3F"/><stop offset="1" stop-color="#18A10A"/></linearGradient><linearGradient id="paint4_linear_667_44" x1="337.984" y1="40.729" x2="329.061" y2="104.484" gradientUnits="userSpaceOnUse"><stop stop-color="#18A10A"/><stop offset="1" stop-color="#9DCE3F"/></linearGradient><linearGradient id="paint5_linear_667_44" x1="347.642" y1="42.081" x2="338.745" y2="105.653" gradientUnits="userSpaceOnUse"><stop stop-color="#9DCE3F"/><stop offset="1" stop-color="#18A10A"/></linearGradient><linearGradient id="paint6_linear_667_44" x1="240.945" y1="19.829" x2="273.893" y2="142.79" gradientUnits="userSpaceOnUse"><stop stop-color="#18A10A"/><stop offset="1" stop-color="#9DCE3F"/></linearGradient><linearGradient id="paint7_linear_667_44" x1="259.572" y1="14.838" x2="292.425" y2="137.448" gradientUnits="userSpaceOnUse"><stop stop-color="#9DCE3F"/><stop offset="1" stop-color="#18A10A"/></linearGradient><linearGradient id="paint8_linear_667_44" x1="157.655" y1="70.247" x2="160.013" y2="282.628" gradientUnits="userSpaceOnUse"><stop stop-color="#0E8AD6"/><stop offset="1" stop-color="#7CC8F6"/></linearGradient><linearGradient id="paint9_linear_667_44" x1="125.188" y1="70.607" x2="127.539" y2="282.38" gradientUnits="userSpaceOnUse"><stop stop-color="#7CC8F6"/><stop offset="1" stop-color="#0E8AD6"/></linearGradient></defs></svg>